<svg width="17" height="17" viewBox="0 0 17 17" fill="none" xmlns="http://www.w3.org/2000/svg">
<g clip-path="url(#clip0_54643_1497)">
<path d="M8.62891 0.5C4.20518 0.5 0.628906 4.07628 0.628906 8.5C0.628906 12.9237 4.20518 16.5 8.62891 16.5C13.0526 16.5 16.6289 12.9237 16.6289 8.5C16.6289 4.07628 13.0526 0.5 8.62891 0.5ZM6.21418 1.58957C5.7921 2.1818 5.43218 2.80675 5.13116 3.46115H3.3152C4.10702 2.62352 5.09844 1.97566 6.21418 1.58957ZM2.74261 4.14172H4.84322C4.34915 5.41452 4.07758 6.77239 4.03831 8.15971H1.31929C1.38801 6.65787 1.90498 5.27382 2.74261 4.14172ZM2.74261 12.8583C1.90498 11.7262 1.38801 10.3421 1.31929 8.84029H4.03831C4.07758 10.2276 4.35897 11.5855 4.85631 12.8583H2.74261ZM3.3152 13.5389H5.14752C5.45181 14.1933 5.81173 14.8247 6.22727 15.417C5.10825 15.0309 4.1103 14.3798 3.3152 13.5389ZM8.28862 15.8129C7.94833 15.7965 7.61132 15.7573 7.28412 15.6984C6.74097 15.0276 6.27635 14.3045 5.90007 13.5421H8.28862V15.8129ZM8.28862 12.8583H5.58923C5.06244 11.5888 4.76142 10.2309 4.71889 8.84029H8.28862V12.8583ZM8.28862 8.15971H4.71889C4.76142 6.77239 5.05917 5.41125 5.58269 4.14172H8.28862V8.15971ZM8.29189 3.46115H8.28862H5.89353C6.27308 2.69223 6.7377 1.96912 7.28412 1.30491C7.61132 1.24274 7.94833 1.20675 8.29189 1.19039V3.46115ZM14.5152 4.14172C15.3528 5.27382 15.8731 6.6546 15.9385 8.15971H13.2195C13.1802 6.77239 12.8988 5.41452 12.4015 4.14172H14.5152ZM13.9426 3.46115H12.1103C11.806 2.80675 11.4461 2.17526 11.0273 1.58303C12.1496 1.96912 13.1475 2.62025 13.9426 3.46115ZM8.96919 1.19039C9.30948 1.20675 9.64649 1.24601 9.97369 1.30491C10.5168 1.97566 10.9815 2.69877 11.3577 3.46115H8.96919V1.19039ZM8.96919 4.14172H11.6686C12.1954 5.40798 12.4964 6.76912 12.5389 8.15971H8.96919V4.14172ZM8.96919 8.84029H12.5389C12.4964 10.2276 12.1986 11.5888 11.6751 12.8583H8.96919V8.84029ZM8.96592 15.8096V13.5389H8.96919H11.3643C10.9847 14.3078 10.5201 15.0309 9.97369 15.6951C9.64649 15.7573 9.30948 15.7933 8.96592 15.8096ZM11.0273 15.417C11.4428 14.8247 11.8027 14.1933 12.1038 13.5389H13.9459C13.1475 14.3798 12.1496 15.0309 11.0273 15.417ZM12.3917 12.8583C12.8825 11.5855 13.1606 10.2276 13.2162 8.84029H15.9418C15.8731 10.3421 15.3561 11.7262 14.5185 12.8583H12.3917Z" fill="#24223E"/>
</g>
<defs>
<clipPath id="clip0_54643_1497">
<rect width="16" height="16" fill="white" transform="translate(0.628906 0.5)"/>
</clipPath>
</defs>
</svg>
