<svg width="15" height="17" viewBox="0 0 15 17" fill="none" xmlns="http://www.w3.org/2000/svg">
<g clip-path="url(#clip0_54643_1505)">
<path fill-rule="evenodd" clip-rule="evenodd" d="M13.4753 11.8282L13.8451 12.1993C13.8685 12.2223 13.8871 12.2497 13.8998 12.28C13.9125 12.3103 13.919 12.3428 13.919 12.3757C13.919 12.4085 13.9125 12.4411 13.8998 12.4713C13.8871 12.5016 13.8685 12.5291 13.8451 12.5521L13.5482 12.8503C13.6312 13.006 13.6933 13.1719 13.7331 13.3438H14.1237C14.19 13.3438 14.2536 13.3701 14.3005 13.417C14.3474 13.4639 14.3737 13.5275 14.3737 13.5938V14.1146C14.3737 14.1811 14.3474 14.2448 14.3006 14.2919C14.2537 14.339 14.1901 14.3656 14.1237 14.3659H13.7031C13.6519 14.5341 13.5788 14.6947 13.4857 14.8438L13.7578 15.1159C13.8046 15.163 13.8308 15.2267 13.8308 15.293C13.8308 15.3594 13.8046 15.423 13.7578 15.4701L13.3893 15.8464C13.3423 15.8932 13.2786 15.9194 13.2122 15.9194C13.1459 15.9194 13.0822 15.8932 13.0352 15.8464L12.7383 15.5495C12.5803 15.6325 12.4122 15.6946 12.2383 15.7344V16.125C12.2379 16.1912 12.2115 16.2546 12.1647 16.3014C12.1179 16.3483 12.0545 16.3747 11.9883 16.375H11.4675C11.401 16.375 11.3373 16.3487 11.2902 16.3019C11.2431 16.2551 11.2165 16.1915 11.2162 16.125V15.7045C11.0475 15.6531 10.8863 15.5795 10.737 15.4857L10.4649 15.7592C10.4178 15.8059 10.3541 15.8322 10.2878 15.8322C10.2214 15.8322 10.1578 15.8059 10.1107 15.7592L9.7435 15.3829C9.72023 15.3597 9.70177 15.3323 9.68917 15.302C9.67657 15.2717 9.67008 15.2392 9.67008 15.2064C9.67008 15.1736 9.67657 15.1412 9.68917 15.1109C9.70177 15.0806 9.72023 15.0531 9.7435 15.03L10.0404 14.7318C9.95795 14.5759 9.89581 14.41 9.85548 14.2383H9.46485C9.40002 14.236 9.33861 14.2086 9.29347 14.162C9.24833 14.1154 9.22296 14.0532 9.22267 13.9883V13.4675C9.223 13.4012 9.24941 13.3376 9.29619 13.2906C9.34296 13.2436 9.40635 13.2169 9.47267 13.2162H9.88673C9.93851 13.0485 10.0121 12.8882 10.1055 12.7396L9.83204 12.4675C9.78529 12.4204 9.75905 12.3568 9.75905 12.2904C9.75905 12.2241 9.78529 12.1604 9.83204 12.1133L10.2031 11.7435C10.2262 11.7203 10.2537 11.7018 10.284 11.6892C10.3143 11.6766 10.3468 11.6701 10.3796 11.6701C10.4124 11.6701 10.4448 11.6766 10.4751 11.6892C10.5054 11.7018 10.5329 11.7203 10.556 11.7435L10.8542 12.0404C11.0101 11.9579 11.1759 11.8958 11.3477 11.8555V11.4649C11.348 11.3987 11.3745 11.3353 11.4213 11.2885C11.4681 11.2417 11.5315 11.2152 11.5977 11.2149H12.1185C12.1847 11.2152 12.2481 11.2417 12.2949 11.2885C12.3417 11.3353 12.3682 11.3987 12.3685 11.4649V11.8855C12.5369 11.9365 12.6977 12.0101 12.8464 12.1042L13.1211 11.8282C13.1683 11.7817 13.2319 11.7557 13.2982 11.7557C13.3644 11.7557 13.428 11.7817 13.4753 11.8282ZM8.47527 15.7344C8.56661 15.7495 8.64964 15.7965 8.70954 15.8671C8.76944 15.9377 8.80232 16.0273 8.80232 16.1198C8.80232 16.2124 8.76944 16.302 8.70954 16.3726C8.64964 16.4432 8.56661 16.4902 8.47527 16.5053H1.52605C1.40791 16.5053 1.29093 16.4819 1.18183 16.4366C1.07273 16.3913 0.973653 16.3248 0.890295 16.2411C0.806937 16.1574 0.740936 16.058 0.696081 15.9487C0.651226 15.8394 0.6284 15.7224 0.628915 15.6042V1.39197C0.628485 1.27473 0.651275 1.15856 0.695972 1.05017C0.740668 0.941785 0.806385 0.84332 0.889331 0.76046C0.972523 0.676867 1.0716 0.610762 1.18072 0.566039C1.28985 0.521315 1.40682 0.498876 1.52475 0.500043H12.5456C12.7834 0.500388 13.0114 0.595018 13.1796 0.763189C13.3477 0.931359 13.4424 1.15935 13.4427 1.39718V9.38416C13.4427 9.39197 13.4427 9.39978 13.4427 9.4076C13.4295 9.50071 13.383 9.58591 13.312 9.64754C13.2409 9.70918 13.1501 9.74312 13.056 9.74312C12.9619 9.74312 12.8711 9.70918 12.8 9.64754C12.729 9.58591 12.6825 9.50071 12.6693 9.4076V1.39718C12.6688 1.36411 12.6558 1.33245 12.6328 1.30864C12.6092 1.2852 12.5775 1.27169 12.5443 1.27088H1.52605C1.50865 1.26973 1.49121 1.2723 1.47489 1.27844C1.45857 1.28458 1.44375 1.29413 1.43142 1.30646C1.4191 1.31879 1.40954 1.33361 1.40341 1.34993C1.39727 1.36625 1.39469 1.38369 1.39584 1.40108V15.6042C1.39663 15.6368 1.40965 15.668 1.4323 15.6914C1.45623 15.7152 1.48844 15.7287 1.52214 15.7292H8.47527V15.7344ZM3.10287 13.8672V13H6.85678V13.8633H3.10418L3.10287 13.8672ZM10.3034 8.28129V9.07687H9.17319V8.28129H10.3034ZM8.28126 7.58077V9.07687H7.14975V7.58077H8.28126ZM6.25912 5.43754V9.08338H5.12761V5.43754H6.25912ZM4.23569 3.93885V9.07687H3.10287V3.93885H4.23569ZM9.61329 4.31645L11.3203 4.32296C11.3193 4.54817 11.2737 4.77096 11.1864 4.97853C11.099 5.18611 10.9715 5.3744 10.8112 5.5326C10.7347 5.60772 10.6514 5.67571 10.5625 5.73572L9.61329 4.31645ZM9.43881 3.97791L9.35287 2.15369C9.35216 2.13629 9.35831 2.1193 9.37 2.1064C9.38169 2.09349 9.39799 2.08569 9.41537 2.08468H9.48308C9.96578 2.07909 10.4324 2.25784 10.7879 2.58448C11.1433 2.91112 11.3607 3.36104 11.3958 3.84249C11.3966 3.85982 11.3907 3.87677 11.3793 3.88986C11.3679 3.90294 11.3519 3.91115 11.3346 3.9128L9.51173 4.04301C9.50324 4.04372 9.4947 4.04272 9.4866 4.04008C9.47851 4.03744 9.47102 4.0332 9.46459 4.02762C9.45816 4.02203 9.45291 4.01522 9.44916 4.00758C9.4454 3.99994 9.44321 3.99162 9.44272 3.98312L9.43881 3.97791ZM9.54688 2.21358L9.63152 3.84249L11.1628 3.70447C11.1296 3.30837 10.9426 2.94101 10.6419 2.68103C10.3216 2.38546 10.0247 2.20968 9.5586 2.21489L9.54688 2.21358ZM9.23569 4.23702L10.1471 5.82166C9.91375 5.95655 9.65344 6.03819 9.38481 6.06076C9.11619 6.08332 8.8459 6.04623 8.59328 5.95216C8.34066 5.85809 8.11195 5.70935 7.92351 5.51659C7.73507 5.32382 7.59156 5.0918 7.50324 4.8371C7.41493 4.58241 7.38399 4.31135 7.41264 4.04331C7.44129 3.77527 7.52882 3.51687 7.66897 3.2866C7.80913 3.05633 7.99844 2.85988 8.22336 2.7113C8.44828 2.56272 8.70326 2.46568 8.97006 2.42713L9.23048 4.23702H9.23569ZM3.10287 11.5456V10.6758H8.42319V11.5391L3.10287 11.5456ZM11.7917 12.767C11.9949 12.767 12.1935 12.8272 12.3624 12.9401C12.5314 13.053 12.6631 13.2134 12.7408 13.4012C12.8186 13.5889 12.8389 13.7955 12.7993 13.9947C12.7596 14.194 12.6618 14.3771 12.5181 14.5208C12.3744 14.6644 12.1914 14.7623 11.9921 14.8019C11.7928 14.8416 11.5863 14.8212 11.3985 14.7435C11.2108 14.6657 11.0504 14.534 10.9375 14.3651C10.8246 14.1961 10.7643 13.9975 10.7643 13.7943C10.7643 13.5218 10.8726 13.2605 11.0652 13.0679C11.2579 12.8752 11.5192 12.767 11.7917 12.767Z" fill="#24223E"/>
</g>
<defs>
<clipPath id="clip0_54643_1505">
<rect width="13.7409" height="16" fill="white" transform="translate(0.628906 0.5)"/>
</clipPath>
</defs>
</svg>
