<svg width="18" height="17" viewBox="0 0 18 17" fill="none" xmlns="http://www.w3.org/2000/svg">
<g clip-path="url(#clip0_54643_1512)">
<path d="M6.64581 11.7555C7.56025 13.6612 10.3346 13.7246 11.2018 11.7541C10.9537 11.4884 10.7271 11.1728 10.5248 10.8909L10.5194 10.8842C10.0972 11.22 9.58605 11.4331 8.91842 11.4318C8.19955 11.4304 7.65736 11.1553 7.21363 10.7493C7.18665 10.7251 7.16103 10.7008 7.1354 10.6752C7.07201 10.8518 6.99109 11.0636 6.90477 11.2605C6.8225 11.4493 6.73213 11.6274 6.64581 11.7555ZM11.512 11.595C12.5195 12.2491 14.8124 12.4191 15.7039 12.9154C16.006 13.084 16.2785 13.2984 16.4983 13.5884C16.9555 14.1926 17.8915 16.3857 16.3742 16.5017H13.5203L13.871 12.5742C13.1332 12.4298 12.3469 12.2532 11.5323 11.804C11.4891 11.804 11.4729 11.8229 11.4095 11.8796C10.8417 14.047 7.35929 14.3653 6.3909 11.831C5.63157 12.2141 4.85739 12.4325 3.97398 12.5688L4.52426 16.503H1.46399C-0.0533363 16.387 0.882683 14.194 1.3399 13.5898C1.55975 13.2998 1.83219 13.0853 2.13431 12.9167C3.0393 12.4096 5.39689 12.2437 6.37607 11.5599C6.44755 11.452 6.52578 11.2942 6.59996 11.1243C6.7119 10.868 6.8144 10.5875 6.88049 10.396C6.6067 10.0736 6.37202 9.70946 6.14678 9.35205L5.43061 8.21237C5.37935 8.20832 5.3281 8.19753 5.2755 8.1827C4.6915 7.99927 4.20461 6.69909 4.30037 6.08542C4.35432 5.73745 4.4784 5.61201 4.67666 5.53648C4.66722 5.50816 4.66183 5.47849 4.66183 5.44612V4.13515C4.66183 3.64287 4.81019 3.15867 5.04891 2.71898C5.31192 2.23749 5.68552 1.80859 6.09418 1.4822C6.92905 0.819971 8.01073 0.488183 9.08702 0.500321C10.1539 0.511111 11.218 0.860433 12.0313 1.55098C12.4238 1.88412 12.7556 2.32111 12.9862 2.80395C13.2114 3.27466 13.3423 3.78988 13.3423 4.29565V5.37733C13.3423 5.53109 13.2182 5.65517 13.0644 5.65517C12.9107 5.65517 12.7866 5.53109 12.7866 5.37733V4.29565C12.7866 3.87215 12.676 3.43921 12.4872 3.04268C12.2903 2.62997 12.007 2.25772 11.6725 1.97448C10.9591 1.3689 10.023 1.06409 9.08162 1.05465C8.12807 1.04386 7.17317 1.33519 6.43946 1.92054C6.08474 2.20377 5.76104 2.57332 5.53446 2.98738C5.33889 3.34749 5.21751 3.74132 5.21751 4.13785V5.38947L5.2256 5.38678L5.45488 5.67136C5.436 5.18312 5.43465 4.66251 5.45623 4.20259C5.47242 4.04209 5.50209 3.88294 5.54795 3.72244C5.73677 3.04538 6.21287 2.50049 6.80092 2.12554C8.32363 1.1558 10.5383 1.29338 11.7993 2.65694C12.2107 3.10202 12.4696 3.69277 12.5249 4.47503L12.4791 6.39967C12.6841 6.46171 12.8163 6.59254 12.8702 6.80429C12.9296 7.03762 12.8648 7.36806 12.6665 7.81719C12.6625 7.82528 12.6585 7.83337 12.6544 7.84147L11.8088 9.23336C11.4985 9.74453 11.1829 10.257 10.7729 10.6617L10.7986 10.6967C11.013 10.9961 11.2571 11.336 11.512 11.595ZM5.84197 6.66942L6.16836 7.56498C6.20343 7.66748 6.21422 7.75785 6.19938 7.83472L6.20208 7.83203C6.7092 8.3931 7.33367 8.79907 8.08356 9.03914C8.12133 8.95282 8.17393 8.87594 8.2508 8.8166C8.48009 8.63992 9.15041 8.6561 9.35811 8.82739C9.5321 8.9717 9.5348 9.30079 9.40532 9.47343C9.13692 9.83219 8.02152 9.53008 7.64792 9.41004C7.04099 9.21582 6.49071 8.73972 5.99033 8.32027L6.4988 9.12816C6.79687 9.60156 7.10843 10.0831 7.49551 10.4378C7.86776 10.779 8.31959 11.0083 8.91842 11.011C9.56582 11.0123 10.0392 10.7723 10.4236 10.4135C10.8228 10.0399 11.1384 9.52603 11.45 9.01486L12.2849 7.63916C12.44 7.28444 12.498 7.04571 12.4615 6.9068C12.44 6.82317 12.3482 6.78271 12.1931 6.77597C12.1594 6.77462 12.1257 6.77462 12.092 6.77462C12.0542 6.77597 12.0151 6.77867 11.9747 6.78271C11.9531 6.78406 11.9315 6.78271 11.9099 6.77867C11.8357 6.78271 11.7589 6.77732 11.6806 6.76653L11.9666 5.50007C9.84365 5.83455 8.2562 4.25789 6.01191 5.18447L6.17376 6.67751C6.08339 6.68156 5.99707 6.67886 5.9175 6.66672C5.89187 6.66537 5.86625 6.66807 5.84197 6.66942Z" fill="#24223E"/>
</g>
<defs>
<clipPath id="clip0_54643_1512">
<rect width="16.5732" height="16" fill="white" transform="translate(0.628906 0.5)"/>
</clipPath>
</defs>
</svg>
