<svg width="17" height="17" viewBox="0 0 17 17" fill="none" xmlns="http://www.w3.org/2000/svg">
<path d="M12.4139 8.86914C11.7202 8.86914 11.042 9.07486 10.4652 9.46029C9.88834 9.84572 9.43875 10.3935 9.17326 11.0345C8.90777 11.6754 8.83831 12.3807 8.97365 13.0611C9.109 13.7416 9.44307 14.3666 9.93363 14.8571C10.4242 15.3477 11.0492 15.6818 11.7296 15.8171C12.4101 15.9525 13.1153 15.883 13.7563 15.6175C14.3972 15.352 14.9451 14.9024 15.3305 14.3256C15.7159 13.7488 15.9216 13.0706 15.9216 12.3768C15.9168 11.448 15.5457 10.5587 14.8889 9.90188C14.2321 9.24511 13.3427 8.87399 12.4139 8.86914ZM13.0293 12.6845C12.9339 12.6822 12.8398 12.6613 12.7524 12.623L11.4293 13.9461C11.3551 14.0195 11.2566 14.0633 11.1524 14.0691C11.0996 14.0743 11.0463 14.0656 10.9977 14.0441C10.9492 14.0225 10.9071 13.9887 10.8755 13.9461C10.8013 13.8668 10.76 13.7623 10.76 13.6538C10.76 13.5452 10.8013 13.4407 10.8755 13.3614L12.1986 12.0384C12.1635 11.9499 12.1427 11.8564 12.137 11.7614C12.123 11.6147 12.1395 11.4667 12.1855 11.3267C12.2314 11.1867 12.3059 11.0577 12.4042 10.9478C12.5024 10.838 12.6224 10.7497 12.7565 10.6885C12.8905 10.6273 13.0358 10.5945 13.1832 10.5922C13.2786 10.5946 13.3727 10.6155 13.4601 10.6538C13.5216 10.6538 13.5216 10.7153 13.4909 10.7461L12.8755 11.3307C12.8612 11.3379 12.8493 11.3489 12.8409 11.3624C12.8326 11.376 12.8281 11.3917 12.8281 11.4076C12.8281 11.4236 12.8326 11.4392 12.8409 11.4528C12.8493 11.4663 12.8612 11.4773 12.8755 11.4845L13.2755 11.8845C13.2864 11.8986 13.3004 11.91 13.3164 11.9178C13.3324 11.9256 13.35 11.9297 13.3678 11.9297C13.3856 11.9297 13.4032 11.9256 13.4192 11.9178C13.4352 11.91 13.4492 11.8986 13.4601 11.8845L14.0447 11.2999C14.0755 11.2691 14.1678 11.2691 14.1678 11.3307C14.1997 11.4201 14.2204 11.5131 14.2293 11.6076C14.227 11.759 14.1934 11.9083 14.1307 12.0461C14.0679 12.1838 13.9774 12.3072 13.8647 12.4083C13.752 12.5094 13.6196 12.5862 13.4759 12.6337C13.3321 12.6812 13.1801 12.6985 13.0293 12.6845Z" fill="#24223E"/>
<path d="M7.30517 9.0537C9.49731 9.0537 11.2744 7.27661 11.2744 5.08447C11.2744 2.89232 9.49731 1.11523 7.30517 1.11523C5.11302 1.11523 3.33594 2.89232 3.33594 5.08447C3.33594 7.27661 5.11302 9.0537 7.30517 9.0537Z" fill="#24223E"/>
<path d="M8.38257 15.8235C9.05949 15.8235 8.69026 15.362 8.69026 15.362C8.01091 14.5158 7.64173 13.4625 7.64411 12.3774C7.64085 11.6972 7.78795 11.0248 8.07488 10.4082C8.0878 10.3729 8.10889 10.3413 8.13642 10.3158C8.3518 9.88507 7.92103 9.8543 7.92103 9.8543C7.72727 9.82872 7.5318 9.81843 7.33642 9.82354C5.88776 9.82918 4.48908 10.3537 3.39397 11.3021C2.29885 12.2504 1.5798 13.5598 1.36719 14.9928C1.36719 15.3005 1.4595 15.8543 2.41334 15.8543H8.29026C8.3518 15.8235 8.3518 15.8235 8.38257 15.8235Z" fill="#24223E"/>
</svg>
