<svg width="16" height="16" viewBox="0 0 16 16" fill="none" xmlns="http://www.w3.org/2000/svg">
<g clip-path="url(#clip0_253_42)">
<mask id="mask0_253_42" style="mask-type:luminance" maskUnits="userSpaceOnUse" x="0" y="0" width="16" height="16">
<path d="M16 0H0V16H16V0Z" fill="white"/>
</mask>
<g mask="url(#mask0_253_42)">
<path d="M16 13.7062C16 13.4365 15.8949 13.1829 15.7042 12.9921L12.4394 9.72731C12.0456 9.33354 11.4049 9.33361 11.0111 9.72731L10.1042 10.6342C9.9749 10.7635 9.88304 10.9258 9.8385 11.1036L9.80933 11.2204C9.0268 10.583 7.91165 9.55257 7.17952 8.82044C6.44737 8.08828 5.41699 6.97317 4.77962 6.19067L4.89652 6.16146C5.07418 6.11696 5.23645 6.0251 5.36576 5.89579L5.54691 5.71464L6.27262 4.98889C6.66639 4.59513 6.66639 3.95435 6.27262 3.56055L3.00788 0.295844C2.81714 0.10507 2.56352 0 2.29378 0C2.024 0 1.77035 0.105038 1.57958 0.295812L0.575463 1.29996C-0.0188556 1.89428 -0.16923 2.82474 0.201225 3.61538C1.17001 5.68302 3.2061 8.42918 5.38846 10.6115C7.57082 12.7939 10.3169 14.83 12.3845 15.7987C12.6735 15.9341 12.9812 15.9999 13.2844 15.9999C13.8106 15.9999 14.323 15.8016 14.7 15.4245L14.9786 15.146L15.7041 14.4205C15.8949 14.2296 16 13.976 16 13.7062ZM1.91964 0.635936C2.01958 0.535996 2.15245 0.480944 2.29375 0.480976C2.43505 0.480976 2.56788 0.535996 2.66782 0.635936L5.9326 3.90065C6.13886 4.10694 6.13886 4.44257 5.9326 4.64883L5.37714 5.20429L1.36418 1.19139L1.91964 0.635936ZM12.5885 15.3632C10.5674 14.4163 7.87465 12.4176 5.72852 10.2714C3.58239 8.12532 1.58375 5.43258 0.636703 3.41137C0.351888 2.80345 0.463916 2.09162 0.915522 1.64005L1.02409 1.53148L5.03698 5.54438L5.02567 5.5557C4.95792 5.62345 4.87285 5.67161 4.77978 5.69492L4.30137 5.81448C4.22281 5.8341 4.15942 5.89198 4.13268 5.96841C4.10597 6.04485 4.11947 6.12956 4.16869 6.19388C4.83322 7.06253 6.13049 8.45162 6.83943 9.16056C7.54831 9.86941 8.93741 11.1667 9.80609 11.8313C9.8704 11.8805 9.95515 11.894 10.0316 11.8673C10.108 11.8406 10.1659 11.7772 10.1855 11.6986L10.305 11.2203C10.3284 11.1271 10.3765 11.042 10.4443 10.9743L10.4556 10.963L14.4685 14.9759L14.36 15.0845C13.9084 15.536 13.1965 15.6481 12.5885 15.3632ZM15.3641 14.0803L14.8086 14.6358L10.7957 10.6229L11.3512 10.0674C11.5574 9.86117 11.8931 9.86111 12.0994 10.0674L15.3641 13.3322C15.464 13.4321 15.5191 13.565 15.5191 13.7063C15.5191 13.8476 15.464 13.9804 15.3641 14.0803Z" fill="#FF0000"/>
</g>
</g>
<g clip-path="url(#clip1_253_42)">
<path d="M11.5 1L10.8831 1.61687L13.3244 4.0625H8V4.9375H13.3244L10.8831 7.38313L11.5 8L15 4.5L11.5 1Z" fill="black"/>
</g>
<defs>
<clipPath id="clip0_253_42">
<rect width="16" height="16" fill="white"/>
</clipPath>
<clipPath id="clip1_253_42">
<rect width="16" height="16" fill="white"/>
</clipPath>
</defs>
</svg>
