<svg width="17" height="16" viewBox="0 0 17 16" fill="none" xmlns="http://www.w3.org/2000/svg">
<g clip-path="url(#clip0_54653_1751)">
<path fill-rule="evenodd" clip-rule="evenodd" d="M12.2776 7.72008C13.0968 7.72008 13.8976 7.96301 14.5788 8.41813C15.2599 8.87325 15.7908 9.52014 16.1043 10.277C16.4178 11.0338 16.4998 11.8666 16.34 12.6701C16.1802 13.4736 15.7857 14.2116 15.2064 14.7909C14.6272 15.3701 13.8891 15.7646 13.0857 15.9244C12.2822 16.0842 11.4494 16.0022 10.6926 15.6887C9.93571 15.3752 9.28882 14.8443 8.8337 14.1632C8.37857 13.4821 8.13565 12.6812 8.13565 11.862C8.13565 10.7635 8.57204 9.71 9.3488 8.93324C10.1256 8.15647 11.1791 7.72008 12.2776 7.72008ZM9.33816 0.542463C9.33816 0.244509 9.6321 0 10.0062 0C10.3803 0 10.6743 0.243173 10.6743 0.542463V2.91674C10.6743 3.2147 10.3803 3.45921 10.0062 3.45921C9.6321 3.45921 9.33816 3.21603 9.33816 2.91674V0.542463ZM1.80246 7.68401C1.76371 7.68401 1.73031 7.51967 1.73031 7.31658C1.73031 7.11349 1.7597 6.95182 1.80246 6.95182H3.60755C3.64496 6.95182 3.67837 7.11616 3.67837 7.31658C3.67837 7.51699 3.64897 7.68401 3.60755 7.68401H1.80246ZM4.68045 7.68401C4.64304 7.68401 4.60964 7.51967 4.60964 7.31658C4.60964 7.11349 4.63903 6.94781 4.67645 6.94781H6.48688C6.5243 6.94781 6.5577 7.11215 6.5577 7.31257C6.5577 7.51299 6.5283 7.68 6.48688 7.68L4.68045 7.68401ZM7.55979 7.68401C7.52238 7.68401 7.48897 7.51967 7.48897 7.31658C7.48897 7.11349 7.51837 6.95182 7.55979 6.95182H9.36621C9.40363 6.95182 9.43703 7.11482 9.43703 7.31524C9.25639 7.42805 9.08241 7.55118 8.91594 7.68401H7.55979ZM1.80647 9.78438C1.76906 9.78438 1.73432 9.62004 1.73432 9.41695C1.73432 9.21386 1.76371 9.05086 1.80647 9.05086H3.60755C3.64496 9.05086 3.67837 9.2152 3.67837 9.41695C3.67837 9.61871 3.64897 9.78438 3.60755 9.78438H1.80647ZM4.68446 9.78438C4.64705 9.78438 4.61365 9.62004 4.61365 9.41695C4.61365 9.21386 4.64304 9.05086 4.68446 9.05086H6.49089C6.5283 9.05086 6.56171 9.2152 6.56171 9.41695C6.56171 9.61871 6.53231 9.78438 6.49089 9.78438H4.68446ZM1.81048 11.8914C1.77306 11.8914 1.73832 11.7271 1.73832 11.5253C1.73832 11.3236 1.76906 11.1579 1.81048 11.1579H3.61557C3.65298 11.1579 3.68638 11.3223 3.68638 11.5253C3.68638 11.7284 3.65699 11.8914 3.61557 11.8914H1.81048ZM4.68847 11.8914C4.65106 11.8914 4.61766 11.7271 4.61766 11.5253C4.61766 11.3236 4.64705 11.1579 4.68847 11.1579H6.4949C6.53231 11.1579 6.56571 11.3223 6.56571 11.5253C6.56571 11.7284 6.53632 11.8914 6.4949 11.8914H4.68847ZM3.38843 0.542463C3.38843 0.244509 3.68237 0 4.04981 0C4.41724 0 4.71118 0.243173 4.71118 0.542463V2.91674C4.71118 3.2147 4.4159 3.45921 4.04981 3.45921C3.68371 3.45921 3.38843 3.21603 3.38843 2.91674V0.542463ZM0.728221 5.18948H13.3331V2.45712C13.3328 2.36864 13.2975 2.28388 13.2349 2.22131C13.1724 2.15875 13.0876 2.12344 12.9991 2.12309H11.7966C11.7466 2.12611 11.6965 2.11887 11.6493 2.1018C11.6022 2.08473 11.5591 2.05821 11.5226 2.02386C11.4861 1.9895 11.457 1.94805 11.4372 1.90204C11.4173 1.85603 11.407 1.80644 11.407 1.75633C11.407 1.70621 11.4173 1.65662 11.4372 1.61061C11.457 1.56461 11.4861 1.52315 11.5226 1.4888C11.5591 1.45444 11.6022 1.42792 11.6493 1.41085C11.6965 1.39379 11.7466 1.38654 11.7966 1.38956H12.9991C13.2826 1.38956 13.5545 1.50218 13.7549 1.70263C13.9554 1.90309 14.068 2.17497 14.068 2.45846V6.79683C13.8249 6.71313 13.5762 6.6466 13.3238 6.59775V5.92033H0.728221V13.0018C0.730776 13.087 0.766208 13.1679 0.827093 13.2276C0.8584 13.2601 0.895958 13.286 0.937514 13.3037C0.979071 13.3214 1.02377 13.3305 1.06893 13.3304H7.05206C7.11932 13.5837 7.20552 13.8316 7.30993 14.072H1.06893C0.786202 14.0726 0.514761 13.9611 0.314024 13.762C0.213509 13.663 0.133917 13.5448 0.0799788 13.4144C0.0260402 13.2841 -0.00114542 13.1442 3.6977e-05 13.0031V2.45979C3.6977e-05 2.1763 0.112652 1.90443 0.313109 1.70397C0.513565 1.50351 0.785442 1.3909 1.06893 1.3909H2.35962C2.45306 1.39654 2.54083 1.43764 2.605 1.5058C2.66917 1.57396 2.7049 1.66405 2.7049 1.75766C2.7049 1.85128 2.66917 1.94136 2.605 2.00952C2.54083 2.07769 2.45306 2.11878 2.35962 2.12443H1.06893C1.02522 2.12423 0.981904 2.13275 0.941525 2.1495C0.901147 2.16625 0.864515 2.19088 0.833774 2.22196C0.771658 2.28505 0.736656 2.36992 0.736237 2.45846V5.19081H0.728221V5.18948ZM5.77073 2.11641C5.7207 2.11943 5.67058 2.11218 5.62346 2.09512C5.57634 2.07805 5.53321 2.05153 5.49672 2.01717C5.46023 1.98282 5.43115 1.94137 5.41127 1.89536C5.3914 1.84935 5.38115 1.79976 5.38115 1.74965C5.38115 1.69953 5.3914 1.64994 5.41127 1.60393C5.43115 1.55792 5.46023 1.51647 5.49672 1.48212C5.53321 1.44776 5.57634 1.42124 5.62346 1.40417C5.67058 1.38711 5.7207 1.37986 5.77073 1.38288H8.22918C8.27921 1.37986 8.32932 1.38711 8.37644 1.40417C8.42357 1.42124 8.4667 1.44776 8.50319 1.48212C8.53968 1.51647 8.56876 1.55792 8.58863 1.60393C8.60851 1.64994 8.61876 1.69953 8.61876 1.74965C8.61876 1.79976 8.60851 1.84935 8.58863 1.89536C8.56876 1.94137 8.53968 1.98282 8.50319 2.01717C8.4667 2.05153 8.42357 2.07805 8.37644 2.09512C8.32932 2.11218 8.27921 2.11943 8.22918 2.11641H5.77073ZM11.0337 11.1566L11.8126 11.8981L13.428 10.2614C13.5616 10.1278 13.6445 10.0182 13.8088 10.1866L14.3433 10.7317C14.5169 10.904 14.5076 10.9989 14.3433 11.1659L12.1159 13.3612C11.7699 13.7005 11.83 13.7219 11.4773 13.3732L10.1412 12.0371C10.1238 12.0216 10.1102 12.0024 10.1013 11.9809C10.0923 11.9594 10.0884 11.9362 10.0897 11.9129C10.091 11.8897 10.0974 11.8671 10.1087 11.8467C10.1199 11.8263 10.1356 11.8087 10.1545 11.7952L10.7718 11.1566C10.864 11.059 10.9388 11.0644 11.039 11.1566H11.0337Z" fill="#24223E"/>
</g>
<defs>
<clipPath id="clip0_54653_1751">
<rect width="16.4182" height="16" fill="white"/>
</clipPath>
</defs>
</svg>
