<svg width="17" height="16" viewBox="0 0 17 16" fill="none" xmlns="http://www.w3.org/2000/svg">
<path d="M7.70708 3.91455V3.15443C7.61465 3.11979 7.52502 3.07811 7.43896 3.02976C7.10199 2.82973 6.84819 2.51519 6.7239 2.14355C6.59961 1.77191 6.61312 1.36796 6.76196 1.00546C6.84467 0.807772 6.96485 0.627955 7.11588 0.475926C7.26645 0.325336 7.44495 0.205572 7.64139 0.12335C7.83933 0.0410236 8.05173 -0.000909354 8.26611 1.49541e-05C8.58818 -3.0446e-05 8.90302 0.0954831 9.17077 0.274464C9.43853 0.453445 9.64716 0.707846 9.77026 1.00546C9.93464 1.4034 9.93464 1.85026 9.77026 2.24819C9.68834 2.44591 9.56805 2.62544 9.41634 2.77639L9.40829 2.78443C9.31282 2.87833 9.20663 2.96067 9.09191 3.02976C9.00684 3.07999 8.91703 3.12175 8.8238 3.15443V3.91455H12.6418C13.1898 3.91632 13.7147 4.13487 14.1021 4.52245C14.4894 4.91003 14.7076 5.43515 14.709 5.98309V6.29009H15.4168C15.6976 6.29115 15.9666 6.40325 16.165 6.60193C16.3634 6.8006 16.4752 7.06971 16.4759 7.3505V9.81317C16.4752 10.094 16.3634 10.3631 16.165 10.5617C15.9666 10.7604 15.6976 10.8725 15.4168 10.8736H14.713V11.1511C14.7113 11.6996 14.4924 12.2251 14.1043 12.6128C13.7161 13.0004 13.1903 13.2186 12.6418 13.2196H7.40411L4.26443 15.9156C4.22982 15.9453 4.18967 15.9679 4.14629 15.982C4.10291 15.9962 4.05716 16.0016 4.01168 15.998C3.9662 15.9944 3.92188 15.9818 3.88128 15.961C3.84068 15.9401 3.8046 15.9115 3.77512 15.8767C3.71615 15.8079 3.68591 15.7191 3.69066 15.6287L3.85823 13.2156H3.83008C3.28285 13.2142 2.75841 12.9963 2.37133 12.6094C1.98425 12.2226 1.76599 11.6983 1.76422 11.1511V10.8736H1.06041C0.77939 10.8729 0.510081 10.7609 0.311369 10.5622C0.112657 10.3635 0.000707864 10.0942 0 9.81317L0 7.3505C0.000706166 7.06971 0.112471 6.8006 0.310894 6.60193C0.509317 6.40325 0.778282 6.29115 1.05907 6.29009H1.76422V5.98175C1.76528 5.43405 1.98323 4.90907 2.37039 4.52167C2.75754 4.13426 3.28238 3.91597 3.83008 3.91455H7.70708ZM11.0921 6.34371C11.3403 6.34371 11.5829 6.4173 11.7892 6.55518C11.9956 6.69306 12.1564 6.88903 12.2514 7.11832C12.3463 7.3476 12.3712 7.5999 12.3228 7.84331C12.2744 8.08671 12.1548 8.3103 11.9794 8.48578C11.8039 8.66127 11.5803 8.78078 11.3369 8.82919C11.0935 8.87761 10.8412 8.85276 10.6119 8.75779C10.3826 8.66282 10.1866 8.50198 10.0488 8.29563C9.91088 8.08928 9.83729 7.84668 9.83729 7.59851C9.83729 7.26571 9.96949 6.94655 10.2048 6.71123C10.4401 6.47591 10.7593 6.34371 11.0921 6.34371ZM5.38383 6.34371C5.632 6.34371 5.87461 6.4173 6.08096 6.55518C6.28731 6.69306 6.44814 6.88903 6.54311 7.11832C6.63808 7.3476 6.66293 7.5999 6.61452 7.84331C6.5661 8.08671 6.44659 8.3103 6.2711 8.48578C6.09562 8.66127 5.87203 8.78078 5.62863 8.82919C5.38522 8.87761 5.13292 8.85276 4.90364 8.75779C4.67436 8.66282 4.47838 8.50198 4.3405 8.29563C4.20262 8.08928 4.12903 7.84668 4.12903 7.59851C4.12903 7.26571 4.26123 6.94655 4.49655 6.71123C4.73187 6.47591 5.05104 6.34371 5.38383 6.34371ZM6.23913 10.5478C6.2202 10.5329 6.2031 10.5158 6.18819 10.4969C6.14474 10.4459 6.12013 10.3815 6.11847 10.3146C6.11726 10.2472 6.13901 10.1815 6.18014 10.1282C6.1955 10.1088 6.21305 10.0913 6.23243 10.0759C6.30617 10.0178 6.39684 9.98534 6.4907 9.9834C6.58457 9.98146 6.6765 10.0102 6.75258 10.0652C6.98168 10.246 7.23595 10.3923 7.50733 10.4996C7.74115 10.59 7.98994 10.6355 8.24064 10.6336C8.49448 10.6282 8.7454 10.5783 8.98199 10.4861C9.2566 10.3764 9.51573 10.2312 9.75283 10.0545C9.83062 10.0014 9.92355 9.9751 10.0176 9.97945C10.1117 9.98381 10.2018 10.0186 10.2743 10.0786C10.2925 10.0954 10.3091 10.1138 10.3239 10.1336C10.3633 10.188 10.3832 10.2541 10.3802 10.3213C10.3745 10.3884 10.3472 10.4519 10.3025 10.5022C10.2855 10.5216 10.2661 10.5387 10.2448 10.5532C9.94333 10.776 9.61269 10.9564 9.26217 11.0894C8.93928 11.2112 8.59774 11.276 8.2527 11.2811C7.90726 11.2859 7.56382 11.2278 7.23921 11.1095C6.88144 10.9757 6.5464 10.7876 6.24583 10.5518L6.23913 10.5478ZM12.6405 4.61166H3.83008C3.46691 4.61308 3.11904 4.75806 2.86237 5.01499C2.6057 5.27191 2.46105 5.61992 2.45999 5.98309V11.1511C2.46105 11.5143 2.6057 11.8623 2.86237 12.1192C3.11904 12.3761 3.46691 12.5211 3.83008 12.5225H4.25505C4.34695 12.5294 4.43243 12.5722 4.49293 12.6418C4.55342 12.7113 4.58404 12.8019 4.57813 12.8939L4.44407 14.8484L7.03142 12.6217C7.0636 12.5895 7.10187 12.5641 7.14398 12.5468C7.1861 12.5295 7.23123 12.5208 7.27675 12.5212H12.6391C13.0023 12.5198 13.3502 12.3748 13.6068 12.1178C13.8635 11.8609 14.0082 11.5129 14.0092 11.1497V5.98175C14.0085 5.61883 13.8641 5.27096 13.6076 5.01421C13.3511 4.75746 13.0034 4.61272 12.6405 4.61166Z" fill="#24223E"/>
</svg>
