<svg width="16" height="16" viewBox="0 0 16 16" fill="none" xmlns="http://www.w3.org/2000/svg">
<g clip-path="url(#clip0_54652_1732)">
<path d="M6.63711 0.70625C6.09336 0.8 5.88711 0.86875 5.69336 1.01875C5.43086 1.225 5.31211 1.41875 5.26211 1.6875C5.23086 1.84375 5.24961 2.0125 5.35586 2.66875C5.38086 2.81875 5.39961 2.9625 5.39961 2.9875C5.39961 3.0125 5.31211 3.08125 5.19336 3.14375C4.88711 3.30625 4.43711 3.6125 4.18086 3.83125L3.95586 4.01875L3.48711 3.75625C2.96211 3.45625 2.79336 3.3875 2.58086 3.3875C2.23711 3.3875 1.82461 3.60625 1.61211 3.89375C1.55586 3.96875 1.40586 4.21875 1.27461 4.44375C0.968359 4.975 0.887109 5.2625 0.949609 5.59375C1.02461 6.00625 1.19336 6.1875 1.81211 6.525C2.04961 6.65625 2.26836 6.78125 2.29336 6.8C2.33711 6.83125 2.33711 6.8625 2.28086 7.18125C2.23711 7.43125 2.21836 7.66875 2.21211 8.05625L2.20586 8.5875L1.66211 8.80625C1.07461 9.04375 0.949609 9.11875 0.818359 9.31875C0.674609 9.53125 0.630859 9.7125 0.630859 10.0188C0.630859 10.2875 0.630859 10.3 0.837109 10.8125C0.949609 11.1 1.08711 11.4 1.14336 11.4812C1.33086 11.7625 1.61211 11.95 1.93086 12.0125C2.16836 12.0562 2.28711 12.0312 2.89336 11.7875L3.38711 11.5875L3.79961 12C4.02461 12.225 4.31836 12.4937 4.45586 12.5938C4.59336 12.6938 4.70586 12.775 4.71211 12.7812C4.71836 12.7875 4.64961 13.0312 4.56211 13.3188C4.36211 13.975 4.34961 14.1437 4.48711 14.4312C4.58711 14.6437 4.81211 14.875 5.02461 14.9937C5.09961 15.0312 5.39336 15.1375 5.66836 15.2188C6.13086 15.3562 6.19961 15.3687 6.46211 15.3687C6.78711 15.3687 6.98711 15.3063 7.20586 15.1438C7.41211 14.9875 7.47461 14.8562 7.65586 14.275L7.81836 13.7312L8.18086 13.7125C8.58711 13.6937 8.96836 13.6375 9.35586 13.525C9.50586 13.4875 9.63711 13.4625 9.64336 13.4812C9.93711 13.9125 10.2809 14.3687 10.3684 14.45C10.5371 14.5938 10.7371 14.6562 11.0121 14.6562C11.3621 14.6562 11.5184 14.5938 12.0621 14.2312C12.7809 13.7437 12.9871 13.4813 13.0121 13.0063C13.0309 12.6938 12.9996 12.625 12.6184 12.075L12.3059 11.625L12.3621 11.55C12.6496 11.175 13.0121 10.5437 13.1746 10.1438L13.2184 10.025L13.4121 10.0375C14.3996 10.1125 14.4934 10.1062 14.7434 9.95625C15.0059 9.8 15.2184 9.48125 15.2934 9.1375C15.3121 9.05625 15.3371 8.7625 15.3559 8.48125C15.3871 8.03125 15.3871 7.95 15.3434 7.7625C15.2621 7.39375 15.0434 7.09375 14.7559 6.9625C14.6434 6.9125 14.5246 6.8875 14.1309 6.85625C13.8621 6.8375 13.5934 6.81875 13.5371 6.81875H13.4309L13.3684 6.5875C13.2684 6.225 13.1121 5.81875 12.9246 5.4625C12.7559 5.14375 12.7559 5.13125 12.8059 5.075C12.8371 5.0375 12.9934 4.8625 13.1621 4.68125C13.5434 4.26875 13.5809 4.2125 13.6371 3.9875C13.7121 3.7 13.6434 3.36875 13.4496 3.075C13.2746 2.8125 12.5684 2.1875 12.2934 2.05625C12.0871 1.95625 12.0684 1.95 11.7621 1.95C11.3246 1.95 11.2621 1.9875 10.7684 2.51875C10.5559 2.74375 10.3746 2.94375 10.3621 2.95625C10.3559 2.96875 10.1934 2.91875 10.0184 2.85C9.64336 2.7 9.25586 2.59375 8.88711 2.525C8.74336 2.5 8.62461 2.48125 8.62461 2.475C8.62461 2.475 8.58711 2.2375 8.54336 1.95C8.44336 1.29375 8.41211 1.19375 8.23711 1.00625C8.00586 0.75 7.66211 0.60625 7.29961 0.6125C7.19336 0.625 6.89961 0.6625 6.63711 0.70625ZM7.64961 1.16875C7.81211 1.24375 7.93086 1.35 7.96211 1.46875C7.98711 1.54375 8.19336 2.825 8.19336 2.9C8.19336 2.9125 8.25586 2.9375 8.33086 2.94375C9.06836 3.04375 9.53711 3.16875 10.1246 3.43125L10.4559 3.58125L10.5184 3.50625C10.5559 3.46875 10.7746 3.225 11.0059 2.96875C11.4871 2.45 11.5684 2.39375 11.8309 2.425C12.0496 2.45 12.2309 2.5625 12.5871 2.8875C12.9684 3.23125 13.0621 3.3375 13.1309 3.49375C13.1871 3.61875 13.2059 3.8375 13.1559 3.95625C13.1309 4.01875 12.7434 4.45625 12.2684 4.95625L12.1434 5.0875L12.2871 5.31875C12.6121 5.8375 12.8496 6.41875 12.9809 7.00625L13.0434 7.28125L13.6996 7.31875C14.0621 7.3375 14.4059 7.36875 14.4684 7.38125C14.7121 7.43125 14.8934 7.725 14.8934 8.08125C14.8934 8.63125 14.8371 9.10625 14.7434 9.2875C14.6809 9.4125 14.4809 9.59375 14.3871 9.61875C14.3496 9.625 13.9996 9.61875 13.6184 9.5875C13.2309 9.5625 12.9059 9.55 12.8996 9.5625C12.8871 9.575 12.8309 9.7125 12.7746 9.8625C12.5621 10.4125 12.2871 10.9 11.9121 11.3562C11.8059 11.4875 11.7184 11.6 11.7184 11.6125C11.7184 11.6188 11.8934 11.875 12.1059 12.1812C12.3184 12.4875 12.5059 12.7687 12.5246 12.8062C12.6059 12.9625 12.4934 13.2937 12.2996 13.4812C12.1371 13.6312 11.4184 14.1062 11.2746 14.1562C11.0996 14.2125 10.7996 14.2 10.6934 14.1313C10.6559 14.1063 10.4371 13.8187 10.2121 13.4937L9.79961 12.9062L9.50586 13C8.96836 13.175 8.33711 13.2688 7.74336 13.2688H7.44961L7.24961 13.9375C7.13711 14.3062 7.02461 14.65 6.98711 14.6938C6.89961 14.825 6.73086 14.8938 6.49336 14.9062C6.31211 14.9187 6.22461 14.9 5.81836 14.7812C5.33086 14.6375 5.23711 14.6 5.08711 14.4875C4.97461 14.4 4.84336 14.1625 4.84336 14.05C4.84336 14 4.93086 13.6687 5.04336 13.3C5.15586 12.9375 5.24336 12.625 5.24336 12.6062C5.24336 12.5875 5.13086 12.5 4.99336 12.4062C4.49961 12.075 4.16211 11.7687 3.78086 11.3062L3.53711 11.0063L3.43086 11.05C2.74961 11.3375 2.16836 11.55 2.06211 11.55C1.89336 11.55 1.65586 11.4062 1.53711 11.2312C1.48711 11.1562 1.36211 10.8938 1.26836 10.6438C1.10586 10.2375 1.08086 10.1625 1.08086 9.99375C1.08086 9.78125 1.14336 9.625 1.26836 9.50625C1.30586 9.46875 1.64336 9.31875 2.01211 9.16875L2.68711 8.9V8.16875C2.68711 7.475 2.69336 7.4125 2.76836 7.0625C2.81211 6.85625 2.84961 6.6625 2.85586 6.63125C2.85586 6.5875 2.72461 6.49375 2.21211 6.20625C1.46836 5.7875 1.43086 5.75 1.41211 5.44375C1.39336 5.2 1.43086 5.1125 1.71211 4.61875C2.06211 4.0375 2.24961 3.875 2.58711 3.875C2.69961 3.875 3.04336 4.05 3.94336 4.5625L4.03711 4.6125L4.27461 4.3875C4.71836 3.975 5.24336 3.61875 5.71211 3.4125C5.86211 3.34375 5.91211 3.30625 5.91211 3.26875C5.91211 3.2375 5.86836 2.91875 5.81211 2.5625C5.69336 1.80625 5.69336 1.775 5.76836 1.63125C5.89336 1.38125 6.11211 1.275 6.66211 1.18125C7.18086 1.09375 7.47461 1.09375 7.64961 1.16875Z" fill="#24223E"/>
<path d="M7.37539 4.25606C6.55664 4.36856 5.82539 4.73106 5.21914 5.31231C4.44414 6.06231 4.05664 6.98731 4.05664 8.07481C4.05664 8.73731 4.18164 9.24981 4.47539 9.82481C5.13164 11.1061 6.43164 11.8936 7.85664 11.8936C9.97539 11.8936 11.6816 10.1873 11.6816 8.06231C11.6816 6.41231 10.6379 4.94981 9.08164 4.41856C8.60664 4.26231 7.86914 4.18731 7.37539 4.25606ZM8.65664 4.79981C9.00039 4.89356 9.31914 5.02481 9.57539 5.18106L9.81289 5.33106L9.66289 5.48106C9.58164 5.56231 9.51289 5.63731 9.51289 5.64981C9.51289 5.65606 9.60039 5.81231 9.70039 5.98731C9.80664 6.16231 9.88789 6.31231 9.88164 6.31856C9.88164 6.32481 9.79414 6.34981 9.69414 6.36856C9.51914 6.41231 9.51914 6.41231 9.22539 6.31856C8.82539 6.18731 8.48164 6.13106 8.12539 6.13106C7.73789 6.13106 7.44414 6.21856 7.13789 6.43106L6.93164 6.57481L6.68789 6.55606C6.41289 6.53731 6.17539 6.46231 6.03164 6.33731L5.93789 6.25606L6.18164 5.84981L6.43164 5.43731L6.33789 5.27481L6.24414 5.11856L6.48789 5.00606C6.71914 4.89356 7.05039 4.79356 7.31914 4.74356C7.39414 4.73106 7.67539 4.72481 7.94414 4.72481C8.33164 4.73731 8.49414 4.74981 8.65664 4.79981ZM8.73164 6.46856C8.85664 6.49356 9.08789 6.56231 9.24414 6.61856L9.52539 6.71856L9.79414 6.64981C9.94414 6.61231 10.0629 6.58106 10.0629 6.58106C10.1129 6.65606 11.0004 8.16856 11.0004 8.18731C11.0004 8.21231 10.4129 8.64981 10.3816 8.64981C10.3754 8.64981 10.3066 8.60606 10.2441 8.54981C9.96914 8.32481 8.35664 7.26856 8.08789 7.13106C7.93789 7.05606 7.72539 7.03731 7.61914 7.09356C7.58164 7.11231 7.43164 7.24356 7.28164 7.38106C6.96289 7.67481 6.80664 7.78731 6.71914 7.78731C6.33164 7.78731 6.89414 6.88106 7.48164 6.56231C7.78164 6.38731 8.21289 6.36231 8.73164 6.46856ZM6.16914 6.73731C6.25039 6.77481 6.40664 6.81231 6.50664 6.81856L6.69414 6.83731L6.58789 6.98106C6.21914 7.49356 6.20664 7.88106 6.55039 8.01856C6.78789 8.11856 6.95039 8.03731 7.43789 7.59356C7.70664 7.34356 7.75039 7.31856 7.82539 7.33106C7.92539 7.34981 8.16914 7.49981 9.18164 8.16856C10.2379 8.86856 10.3566 8.97481 10.3129 9.16856C10.2879 9.26856 10.1504 9.32481 10.0254 9.28731C9.97539 9.27481 9.67539 9.09356 9.35664 8.88731C9.03789 8.68731 8.75039 8.51856 8.71289 8.51856C8.63164 8.51856 8.59414 8.56856 8.60039 8.66856C8.60664 8.72481 8.71289 8.80606 9.20039 9.11856C9.64414 9.39981 9.79414 9.51231 9.80039 9.56231C9.81289 9.66231 9.73164 9.76231 9.61914 9.78106C9.53164 9.79981 9.46914 9.77481 9.10664 9.56856C8.88164 9.43731 8.66914 9.33731 8.64414 9.33731C8.56914 9.33731 8.49414 9.46231 8.53164 9.53106C8.55039 9.56231 8.72539 9.67481 8.92539 9.78731C9.15039 9.91231 9.28789 10.0061 9.28789 10.0373C9.28789 10.0623 9.25664 10.1123 9.21914 10.1498C9.10664 10.2561 8.98789 10.2436 8.71914 10.0811C8.45664 9.93106 8.35039 9.91856 8.31914 10.0498C8.29414 10.1436 8.33164 10.1873 8.52539 10.2998C8.61289 10.3498 8.68164 10.3998 8.68164 10.4123C8.68164 10.4498 8.54414 10.5873 8.50039 10.5873C8.48164 10.5873 8.33789 10.5186 8.18789 10.4373C7.96289 10.3123 7.91914 10.2748 7.92539 10.2311C7.93164 10.1998 7.93789 10.0998 7.93789 10.0123C7.93789 9.82481 7.86289 9.68731 7.71289 9.63731C7.61914 9.59981 7.61289 9.59356 7.63164 9.49981C7.65664 9.34356 7.54414 9.15606 7.39414 9.08106C7.28164 9.02481 7.27539 9.01856 7.26914 8.89356C7.26914 8.64981 7.07539 8.44981 6.84414 8.44981C6.66289 8.44981 6.55039 8.51856 6.40039 8.72481C6.28789 8.88731 6.27539 8.89356 6.23164 8.83731C6.10039 8.67481 5.85664 8.63106 5.66914 8.74356C5.56289 8.80606 5.56289 8.80606 5.48789 8.74981C5.28789 8.60606 4.86289 8.09981 4.88789 8.03731C4.90039 7.99981 5.55664 6.91231 5.73164 6.63106L5.80039 6.52481L5.90664 6.60606C5.96914 6.63731 6.08789 6.69981 6.16914 6.73731ZM4.90664 8.53731C5.00664 8.65606 5.15039 8.81231 5.23789 8.88106L5.38789 9.01231L5.31289 9.15606C5.23789 9.31856 5.23789 9.42481 5.33789 9.58106C5.40664 9.69981 5.50664 9.76231 5.64414 9.78106C5.73789 9.79356 5.76289 9.81231 5.80039 9.90606C5.85039 10.0311 5.98789 10.1248 6.15039 10.1498C6.23789 10.1623 6.26289 10.1873 6.30039 10.2623C6.35039 10.3873 6.50039 10.5061 6.63789 10.5248C6.73164 10.5436 6.75664 10.5623 6.78789 10.6373C6.86289 10.8186 7.10664 10.9373 7.28789 10.8873C7.43789 10.8436 7.46914 10.8123 7.71289 10.4873C7.71289 10.4811 7.86289 10.5561 8.03789 10.6498C8.30664 10.7998 8.37539 10.8248 8.50039 10.8248C8.62539 10.8248 8.66289 10.8123 8.75039 10.7373C8.80664 10.6873 8.87539 10.6123 8.90039 10.5623C8.93789 10.4936 8.96914 10.4811 9.06289 10.4811C9.26289 10.4811 9.45664 10.3436 9.54414 10.1436C9.57539 10.0748 9.60664 10.0561 9.68164 10.0436C9.88789 10.0061 10.0191 9.87481 10.1066 9.61231C10.1191 9.58106 10.1566 9.56231 10.2066 9.56231C10.3066 9.56231 10.4566 9.46856 10.5441 9.34981C10.6066 9.26856 10.6254 9.03731 10.5816 8.91231C10.5629 8.86231 10.6066 8.81856 10.8504 8.64356C11.0379 8.50606 11.1504 8.44356 11.1691 8.45606C11.2379 8.52481 11.0441 9.20606 10.8504 9.58731C10.0004 11.2686 7.93789 11.9248 6.28789 11.0311C5.85039 10.7936 5.38164 10.3686 5.10664 9.96856C4.91289 9.68106 4.70664 9.23106 4.61914 8.88731L4.54414 8.57481L4.61289 8.44356C4.65039 8.37481 4.68789 8.31856 4.70039 8.31856C4.71914 8.32481 4.80664 8.41856 4.90664 8.53731ZM6.95664 8.75606C6.98789 8.78731 7.01289 8.83106 7.01289 8.85606C7.01289 8.93106 6.32539 9.83731 6.24414 9.86856C6.15664 9.89981 6.08789 9.86231 6.05039 9.76231C6.02539 9.69356 6.06289 9.63731 6.38789 9.19356C6.78789 8.66231 6.83164 8.63106 6.95664 8.75606ZM6.00664 8.98731C6.03789 9.01856 6.06289 9.06231 6.06289 9.09356C6.06289 9.14356 5.88164 9.41231 5.80664 9.46856C5.71289 9.54981 5.54414 9.47481 5.54414 9.35606C5.54414 9.29981 5.75039 8.99981 5.81289 8.95606C5.86914 8.91856 5.94414 8.93106 6.00664 8.98731ZM7.30039 9.33731C7.33164 9.36856 7.35664 9.41856 7.35664 9.44981C7.35664 9.49356 6.96914 10.0498 6.83164 10.1998C6.72539 10.3123 6.55039 10.2623 6.55039 10.1123C6.55039 10.0748 6.63789 9.93106 6.74414 9.78731C7.15039 9.23731 7.18164 9.21231 7.30039 9.33731ZM7.66289 9.92481C7.68789 9.96231 7.70039 10.0123 7.69414 10.0373C7.65039 10.1498 7.28164 10.6061 7.21289 10.6248C7.12539 10.6436 7.00039 10.5186 7.02539 10.4373C7.03164 10.4123 7.13164 10.2686 7.24414 10.1186C7.41289 9.88731 7.45039 9.85606 7.52539 9.85606C7.58789 9.85606 7.63164 9.87481 7.66289 9.92481Z" fill="#24223E"/>
</g>
<defs>
<clipPath id="clip0_54652_1732">
<rect width="16" height="16" fill="white"/>
</clipPath>
</defs>
</svg>
