<svg width="20" height="19" viewBox="0 0 20 19" fill="none" xmlns="http://www.w3.org/2000/svg">
<g clip-path="url(#clip0_54729_1426)">
<path d="M16.5185 1.57556V6.77803C16.5185 7.05308 16.295 7.27655 16.0199 7.27655C15.8996 7.27655 15.7886 7.23436 15.7027 7.16247L14.1743 6.12479L12.5115 7.19529C12.4365 7.24374 12.3498 7.27101 12.2606 7.27424C12.1714 7.27746 12.0829 7.2565 12.0046 7.21359C11.9263 7.17068 11.8611 7.1074 11.8158 7.03046C11.7705 6.95351 11.7468 6.86575 11.7473 6.77647H11.7458V1.57556H10.6081C10.5269 1.57563 10.4481 1.60317 10.3846 1.6537C10.3236 1.70371 10.2783 1.77091 10.2596 1.84905L10.2549 1.87249V16.2172C10.5518 16.0359 10.8769 15.9374 11.2441 15.9343C11.2582 15.9327 11.2722 15.9327 11.2863 15.9327H18.0609C18.1578 15.9327 18.2469 15.8921 18.3125 15.828C18.3782 15.7624 18.4172 15.6733 18.4172 15.5764V1.93344C18.4172 1.83655 18.3766 1.74747 18.3125 1.68183C18.2469 1.6162 18.1578 1.57713 18.0609 1.57713H16.5185V1.57556ZM11.2441 16.9282C11.0597 16.9314 10.8956 16.9876 10.744 17.0861C10.5737 17.1986 10.4127 17.3658 10.2564 17.583V18.0831C10.2564 18.3582 10.033 18.5816 9.75791 18.5816C9.48286 18.5816 9.25938 18.3582 9.25938 18.0831V17.4971C9.20469 17.4314 9.15468 17.3689 9.10936 17.3111C8.89057 17.0376 8.80618 16.9314 8.34829 16.9314H1.5643C1.3866 16.9314 1.21065 16.8963 1.04652 16.8282C0.882402 16.7601 0.733338 16.6603 0.607881 16.5344C0.353947 16.2802 0.211194 15.9357 0.210938 15.5764L0.210938 1.93344C0.210938 1.5615 0.362526 1.22238 0.607881 0.977023C0.733251 0.851061 0.882297 0.751142 1.04644 0.683017C1.21058 0.614893 1.38658 0.579908 1.5643 0.580079H8.93745C9.25157 0.580079 9.54224 0.689473 9.77197 0.872317C10.0097 0.683311 10.3044 0.580312 10.6081 0.580079H18.0609C18.4329 0.580079 18.772 0.731668 19.0173 0.977023C19.1433 1.10239 19.2432 1.25144 19.3113 1.41558C19.3795 1.57972 19.4144 1.75572 19.4143 1.93344V15.5764C19.4143 15.9484 19.2627 16.2875 19.0173 16.5328C18.892 16.6588 18.7429 16.7587 18.5788 16.8269C18.4146 16.895 18.2386 16.93 18.0609 16.9298H11.2863C11.2722 16.9298 11.2582 16.9282 11.2441 16.9282ZM9.25938 1.77716C9.23023 1.71659 9.18452 1.66552 9.12755 1.62984C9.07058 1.59416 9.00467 1.57535 8.93745 1.57556H1.5643C1.46741 1.57556 1.37833 1.6162 1.31269 1.68027C1.24705 1.74591 1.20642 1.83498 1.20642 1.93344V15.5764C1.20642 15.6733 1.24705 15.7624 1.31113 15.828C1.37676 15.8937 1.46584 15.9327 1.56273 15.9327H8.34673C8.78118 15.9327 9.05153 15.9781 9.25782 16.0828V1.77716H9.25938ZM15.5214 1.59901H12.7412V5.86693L13.9118 5.11368V5.11524C14.0743 5.0121 14.2884 5.00741 14.4572 5.12149L15.5214 5.84349V1.59901Z" fill="#332C5C"/>
</g>
<defs>
<clipPath id="clip0_54729_1426">
<rect width="19.2033" height="18" fill="white" transform="translate(0.210938 0.580078)"/>
</clipPath>
</defs>
</svg>
