<svg width="16" height="16" viewBox="0 0 16 16" fill="none" xmlns="http://www.w3.org/2000/svg">
<g clip-path="url(#clip0_54643_1265)">
<path d="M10.1551 0.74765V4.01859H13.3224L10.1551 0.74765ZM1.6203 5.99422L6.0756 9.9744C6.08224 9.97974 6.08875 9.9856 6.095 9.99172L7.59955 11.3357L13.6654 6.03654V4.73303H9.79784C9.60057 4.73303 9.44068 4.57301 9.44068 4.37588V0.714447H1.6203V5.99422ZM14.3798 5.41233C14.4771 5.32834 14.585 5.29149 14.6971 5.29149C14.7919 5.29149 14.8819 5.31975 14.9645 5.36923C15.025 5.40543 15.0806 5.45347 15.129 5.50894C15.2557 5.65399 15.3492 5.87782 15.3492 6.06362V15.2621C15.3492 15.4638 15.2663 15.6479 15.1328 15.7822L15.132 15.7829L15.1313 15.7835L15.1305 15.7845C14.9962 15.9174 14.8126 16.0001 14.6113 16.0001H0.737885C0.536194 16.0001 0.352211 15.9172 0.217837 15.7835L0.217186 15.7829L0.216535 15.7822L0.215753 15.7814C0.0825514 15.647 0 15.4632 0 15.262V6.06349C0 5.87456 0.0963534 5.64644 0.225259 5.50191C0.272394 5.44904 0.327862 5.40243 0.38958 5.3661C0.47109 5.31819 0.559501 5.29084 0.652078 5.29084C0.740359 5.29084 0.825905 5.31402 0.905852 5.36506V0.357289C0.905852 0.160025 1.06588 0 1.26314 0H10.273C10.3834 0 10.4819 0.0499996 10.5474 0.128645L14.278 3.98122C14.3453 4.05049 14.3788 4.14007 14.3788 4.22965H14.3798V4.33226C14.3817 4.34658 14.3826 4.36116 14.3826 4.37601C14.3826 4.39072 14.3817 4.40543 14.3798 4.41963V5.41233ZM7.35997 12.0757L5.84657 10.7237L0.714447 15.2212V15.262C0.714447 15.2691 0.716661 15.2747 0.720177 15.2783L0.721609 15.2796C0.725124 15.2831 0.730853 15.2854 0.737885 15.2854H14.6113C14.6184 15.2854 14.6241 15.2831 14.6276 15.2796V15.2798L14.629 15.2783C14.6326 15.2747 14.6348 15.2691 14.6348 15.262V15.2378L9.43313 10.6792L7.83158 12.0785L7.83145 12.0783C7.69811 12.1952 7.49538 12.1968 7.35997 12.0757ZM5.31155 10.2458L0.714447 6.13901V14.2744L5.31155 10.2458ZM14.6348 14.291V6.13524L9.97414 10.2068L14.6348 14.291Z" fill="#24223E"/>
</g>
<defs>
<clipPath id="clip0_54643_1265">
<rect width="15.3492" height="16" fill="white"/>
</clipPath>
</defs>
</svg>
