<svg width="18" height="16" viewBox="0 0 18 16" fill="none" xmlns="http://www.w3.org/2000/svg">
<path d="M2.16932 12.4052C2.20141 12.6309 2.25991 12.852 2.34361 13.0641C2.43064 13.2899 2.56328 13.4954 2.73326 13.6677C3.28303 14.2132 3.99717 14.2118 4.77931 14.2118H5.15055C5.47219 13.7485 6.22742 13.424 7.10592 13.424C8.27772 13.424 9.23131 14.0007 9.23131 14.7134C9.23131 15.4261 8.28055 16.0028 7.10592 16.0028C6.24584 16.0028 5.50478 15.6911 5.1718 15.2433H4.77931C3.77612 15.2433 2.85937 15.2433 2.00921 14.4017C1.73964 14.1304 1.52843 13.8068 1.38859 13.4509C1.25746 13.1152 1.17169 12.7636 1.13355 12.4052C0.830823 12.3978 0.542943 12.2725 0.331217 12.0561C0.119491 11.8396 0.000648503 11.549 0 11.2462L0 7.06621C0.000748284 6.75904 0.123102 6.46466 0.340305 6.24746C0.557507 6.03026 0.851881 5.90791 1.15905 5.90716H1.24123C1.45094 3.76051 2.79986 2.08144 4.62345 1.07684C5.70516 0.484572 6.89968 0.127276 8.12894 0.0283054C9.3782 -0.0808655 10.6359 0.0970037 11.8059 0.54832C13.8533 1.35739 15.5693 3.07613 16.2338 5.90716H16.2522C16.5594 5.90791 16.8538 6.03026 17.071 6.24746C17.2882 6.46466 17.4105 6.75904 17.4113 7.06621V11.2462C17.4105 11.5533 17.2882 11.8477 17.071 12.0649C16.8538 12.2821 16.5594 12.4045 16.2522 12.4052H15.0932V6.00918C14.4995 3.68399 13.0769 2.26706 11.3893 1.60393C10.3801 1.21556 9.29534 1.06337 8.21821 1.15902C7.15078 1.24305 6.11314 1.55159 5.17322 2.06444C3.59476 2.9401 2.44279 4.39246 2.34927 6.24155C2.34693 6.2971 2.33643 6.35201 2.3181 6.4045V12.4052H2.16932Z" fill="#24223E"/>
</svg>
