<svg width="19" height="19" viewBox="0 0 19 19" fill="none" xmlns="http://www.w3.org/2000/svg">
<path d="M13.5301 10.158V12.0963C13.5301 13.058 13.1481 13.9803 12.4681 14.6603C11.7881 15.3404 10.8658 15.7224 9.90408 15.7224C8.94239 15.7224 8.02009 15.3404 7.34007 14.6603C6.66006 13.9803 6.27803 13.058 6.27803 12.0963V11.67C5.47232 11.5444 4.738 11.1351 4.20749 10.5158C3.67698 9.89653 3.3852 9.10808 3.38477 8.29264V5.5538C3.38488 5.2889 3.45104 5.02821 3.57725 4.79531C3.70346 4.5624 3.88574 4.36464 4.10761 4.21991C4.12338 3.96582 4.22349 3.72426 4.39207 3.5335C4.56066 3.34274 4.78808 3.2137 5.03831 3.16682C5.28853 3.11993 5.54724 3.15789 5.77345 3.27468C5.99966 3.39147 6.18043 3.5804 6.28711 3.81155C6.3938 4.0427 6.42029 4.30284 6.36241 4.55074C6.30452 4.79865 6.16556 5.02016 5.96754 5.18015C5.76952 5.34015 5.52378 5.42949 5.26924 5.43403C5.0147 5.43856 4.76593 5.35802 4.56234 5.20517C4.47991 5.30265 4.43461 5.42614 4.43445 5.5538V8.2917C4.43445 8.91984 4.68398 9.52226 5.12814 9.96642C5.57231 10.4106 6.17473 10.6601 6.80287 10.6601C7.43102 10.6601 8.03343 10.4106 8.4776 9.96642C8.92176 9.52226 9.17129 8.91984 9.17129 8.2917V5.5538C9.17132 5.44019 9.13552 5.32946 9.06898 5.23738C8.85776 5.37966 8.60513 5.44742 8.35107 5.42994C8.097 5.41247 7.85603 5.31075 7.66629 5.14089C7.47654 4.97103 7.34888 4.74274 7.3035 4.49215C7.25812 4.24156 7.29762 3.983 7.41574 3.75739C7.53387 3.53178 7.72387 3.35201 7.95567 3.24655C8.18747 3.14108 8.44782 3.11595 8.69551 3.17512C8.94321 3.23429 9.16409 3.37439 9.32319 3.57324C9.48229 3.77208 9.57053 4.01832 9.57392 4.27296C9.77448 4.42093 9.93751 4.61391 10.0499 4.83637C10.1623 5.05883 10.2209 5.30456 10.221 5.5538V8.2917C10.2205 9.10713 9.92876 9.89558 9.39825 10.5149C8.86774 11.1341 8.13342 11.5435 7.32771 11.6691V12.0954C7.32771 12.7785 7.5991 13.4337 8.08218 13.9168C8.56525 14.3999 9.22044 14.6713 9.90361 14.6713C10.5868 14.6713 11.242 14.3999 11.725 13.9168C12.2081 13.4337 12.4795 12.7785 12.4795 12.0954V10.158C12.0034 10.0307 11.5898 9.73454 11.3159 9.32484C11.0419 8.91514 10.9263 8.41981 10.9905 7.93116C11.0547 7.44251 11.2944 6.99388 11.6649 6.66887C12.0355 6.34387 12.5115 6.16468 13.0043 6.16468C13.4972 6.16468 13.9732 6.34387 14.3437 6.66887C14.7143 6.99388 14.954 7.44251 15.0182 7.93116C15.0824 8.41981 14.9668 8.91514 14.6928 9.32484C14.4189 9.73454 14.0053 10.0307 13.5292 10.158H13.5301ZM13.9849 8.19696C13.9849 8.00303 13.9274 7.81345 13.8196 7.65221C13.7119 7.49096 13.5587 7.36528 13.3796 7.29107C13.2004 7.21686 13.0033 7.19744 12.8131 7.23527C12.6228 7.27311 12.4481 7.36649 12.311 7.50362C12.1739 7.64075 12.0805 7.81546 12.0427 8.00567C12.0048 8.19587 12.0242 8.39302 12.0985 8.57219C12.1727 8.75136 12.2983 8.90449 12.4596 9.01224C12.6208 9.11998 12.8104 9.17748 13.0043 9.17748C13.2644 9.17723 13.5138 9.07388 13.6977 8.89008C13.8817 8.70627 13.9853 8.45702 13.9858 8.19696H13.9849Z" fill="#332C5C"/>
</svg>
