<svg width="7" height="16" viewBox="0 0 7 16" fill="none" xmlns="http://www.w3.org/2000/svg">
<g clip-path="url(#clip0_54653_1743)">
<path d="M0.0570313 15.6178V13.279C0.0570313 13.0681 0.227995 12.8969 0.439063 12.8969H0.909635C0.923438 12.8867 0.940365 12.871 0.960156 12.8499C0.984635 12.8238 1.00273 12.8009 1.01406 12.7814V8.57213C1.00208 8.5513 0.983073 8.52669 0.957161 8.49857C0.951953 8.49297 0.947005 8.48711 0.942188 8.48125C0.929948 8.46862 0.91888 8.45872 0.909115 8.45143H0.382161C0.171094 8.4513 0 8.28021 0 8.06927V5.58138C0 5.37044 0.171094 5.19935 0.382161 5.19935H4.97096C5.30925 5.19935 5.5638 5.34219 5.73503 5.62617C5.86914 5.84857 5.93607 6.15625 5.93607 6.54805V12.7775C5.94688 12.7931 5.96563 12.8143 5.99219 12.841C6.01849 12.8672 6.03997 12.8861 6.05651 12.897H6.53021C6.74115 12.897 6.91237 13.0681 6.91237 13.2792V15.618C6.91237 15.8289 6.74128 16.0001 6.53021 16.0001H0.439193C0.228125 16 0.0570313 15.8288 0.0570313 15.6178ZM0.821224 13.6612V15.2358H6.14805V13.6612H6.0293C5.9168 13.6612 5.80664 13.6309 5.69805 13.571C5.61341 13.5243 5.53164 13.4609 5.45195 13.3812C5.37279 13.3022 5.30911 13.2193 5.26172 13.1324C5.20221 13.0236 5.17201 12.9139 5.17201 12.8039V6.54805C5.17201 6.29674 5.14193 6.12044 5.08138 6.02018C5.05859 5.98242 5.02187 5.96341 4.97096 5.96341H0.764193V7.68698H0.939974C1.0526 7.68698 1.16432 7.71888 1.27461 7.78216C1.35026 7.82565 1.42409 7.8849 1.49596 7.95951C1.50378 7.96667 1.5112 7.97409 1.51849 7.98203C1.59453 8.06497 1.65378 8.14661 1.69544 8.22656C1.75026 8.33203 1.77839 8.43802 1.77839 8.5444V12.8036C1.77839 12.9036 1.75456 13.0023 1.70794 13.1C1.70404 13.1094 1.69974 13.1186 1.69492 13.1277C1.6526 13.2092 1.59258 13.2906 1.51563 13.3721C1.43789 13.4547 1.35742 13.5202 1.27383 13.5677C1.1651 13.6296 1.05404 13.6611 0.940104 13.6611L0.821224 13.6612ZM3.46563 4.3388C3.14141 4.3388 2.84323 4.29088 2.57057 4.19479C2.2918 4.09648 2.04414 3.94857 1.82721 3.75078C1.82096 3.74518 1.81497 3.73932 1.80924 3.73333C1.59583 3.53724 1.43555 3.31003 1.3276 3.05221C1.21758 2.78932 1.16302 2.49896 1.16302 2.18203C1.16302 1.86497 1.21758 1.57266 1.32786 1.30638C1.43945 1.03646 1.6056 0.79974 1.82721 0.597526L1.83294 0.592318C2.04727 0.395443 2.29245 0.247396 2.56914 0.147786C2.84362 0.0490885 3.14232 0 3.46563 0C3.79635 0 4.09935 0.0485677 4.37474 0.146354C4.65638 0.246354 4.9056 0.396615 5.12279 0.597656L5.12292 0.597526C5.3444 0.799609 5.51068 1.03646 5.62227 1.30625C5.73242 1.57253 5.78711 1.86497 5.78711 2.18203C5.78711 2.49896 5.73255 2.78945 5.6224 3.05234C5.51133 3.31745 5.34505 3.55039 5.12227 3.75026L5.12292 3.75078C4.90612 3.94844 4.65625 4.09622 4.37318 4.19479C4.09701 4.29088 3.79466 4.3388 3.46563 4.3388ZM2.82435 3.47539C3.01211 3.54154 3.22578 3.57461 3.46563 3.57461C3.71328 3.57461 3.93229 3.54167 4.12253 3.47539C4.30599 3.41159 4.46823 3.31536 4.60951 3.18659L4.61016 3.18724L4.6125 3.18503C4.74883 3.06315 4.85039 2.92122 4.9181 2.75964C4.98828 2.59206 5.02305 2.39922 5.02305 2.1819C5.02305 1.96133 4.98828 1.76562 4.91797 1.5957C4.85052 1.43268 4.74792 1.28763 4.60964 1.16146L4.60977 1.16133L4.60677 1.15859C4.46654 1.02839 4.30482 0.930729 4.12122 0.865625C3.92995 0.797786 3.71159 0.764062 3.46576 0.764062C3.225 0.764062 3.01185 0.797266 2.82591 0.864193C2.6487 0.927865 2.49023 1.02396 2.35013 1.1526C2.34701 1.1556 2.34388 1.15859 2.34063 1.16146C2.20234 1.28776 2.09974 1.43268 2.03229 1.5957C1.96198 1.76562 1.92721 1.96133 1.92721 2.18177C1.92721 2.39909 1.96211 2.5918 2.03216 2.75951C2.09701 2.91445 2.19323 3.05143 2.32109 3.16979C2.32773 3.17513 2.33424 3.1806 2.34063 3.18646C2.48164 3.31523 2.64284 3.41133 2.82435 3.47539Z" fill="#24223E"/>
</g>
<defs>
<clipPath id="clip0_54653_1743">
<rect width="6.91224" height="16" fill="white"/>
</clipPath>
</defs>
</svg>
