<svg width="18" height="16" viewBox="0 0 18 16" fill="none" xmlns="http://www.w3.org/2000/svg">
<g clip-path="url(#clip0_54653_1754)">
<path d="M5.00289 6.08514C5.08702 5.85378 5.2034 5.74021 5.35063 5.69954C5.29875 4.68999 5.4642 3.10275 4.43221 2.79007C6.47796 0.261983 8.83358 -1.11353 10.6073 1.13553C12.6418 1.24209 13.514 4.33104 12.1146 5.85518C12.2237 5.84927 12.3325 5.87199 12.4301 5.92108C12.4881 5.95196 12.5393 5.994 12.581 6.04478C12.6226 6.09555 12.6538 6.15406 12.6727 6.21694C12.7187 6.38556 12.7143 6.56397 12.6601 6.73013L12.3951 7.47748C12.3686 7.58579 12.3099 7.68355 12.2268 7.75791C12.1224 7.83346 11.9925 7.86516 11.865 7.84624C11.8401 7.84482 11.8153 7.84202 11.7907 7.83783C11.7739 8.67912 11.3701 9.06612 10.8232 9.5723L10.6171 9.7686C10.0717 10.2944 9.47577 10.5496 8.87004 10.5496C8.26431 10.5496 7.63754 10.286 7.06406 9.77561L6.86215 9.60034C6.33354 9.14184 5.88905 8.76185 5.80913 7.83643H5.76286C5.65378 7.83556 5.5467 7.8071 5.45158 7.7537C5.29477 7.65485 5.17499 7.50698 5.11086 7.33305C5.02941 7.13491 4.982 6.92443 4.97064 6.7105C4.97064 6.646 4.97064 6.517 4.97064 6.39361C4.96758 6.28718 4.97747 6.18077 5.00009 6.07672L5.00289 6.08514ZM6.28166 10.53L7.57164 14.327L8.22224 12.0723L7.90395 11.7246C7.76093 11.5152 7.72915 11.332 7.80861 11.175C7.98107 10.8342 8.33722 10.8945 8.67093 10.8945C9.00465 10.8945 9.45193 10.8286 9.5613 11.2647C9.57547 11.3445 9.57281 11.4264 9.55349 11.5051C9.53418 11.5838 9.49863 11.6576 9.44913 11.7218L9.13084 12.0723L9.78004 14.327L10.948 10.53C11.7893 11.2885 14.7591 11.4414 15.6873 11.9588C15.9881 12.1226 16.2513 12.3476 16.4599 12.6192C16.9913 13.3203 17.0362 14.3144 17.2297 15.1739C17.182 15.6759 16.8974 15.9647 16.3379 16.0068H0.891771C0.330909 15.9647 0.0504776 15.6745 0 15.1739C0.193498 14.3018 0.239769 13.3203 0.769784 12.6192C0.977317 12.3465 1.24073 12.1213 1.54237 11.9588C2.472 11.4414 5.43896 11.2885 6.28166 10.53ZM10.3339 3.02844C9.2991 4.07865 8.00351 3.75475 7.0907 4.16839C7.03742 4.20064 6.98274 4.23709 6.92665 4.27495C6.65756 4.44945 6.452 4.70615 6.34055 5.00688C6.24018 5.33197 6.23193 5.67852 6.31671 6.00802C6.32856 6.04734 6.32856 6.08928 6.31671 6.1286C6.29835 6.17907 6.26077 6.22023 6.21217 6.24309C6.16357 6.26594 6.1079 6.26864 6.05731 6.25059C5.87503 6.18469 5.48804 5.9982 5.3955 6.21133C5.3955 6.26041 5.38708 6.33472 5.38428 6.41324C5.38428 6.52401 5.38428 6.64039 5.38428 6.69367C5.39186 6.85969 5.42741 7.02323 5.48944 7.17741C5.52179 7.2666 5.58047 7.34386 5.6577 7.39896C5.6931 7.41787 5.73254 7.42797 5.77268 7.4284C5.82891 7.4273 5.88467 7.41785 5.93813 7.40036C5.95808 7.3938 5.97884 7.39003 5.99983 7.38914C6.05327 7.38838 6.10487 7.4087 6.14344 7.44571C6.18202 7.48271 6.20447 7.53341 6.20594 7.58684C6.22838 8.50666 6.6364 8.8572 7.13277 9.28485L7.33888 9.46433C7.83805 9.90741 8.36246 10.136 8.88126 10.136C9.40005 10.136 9.88099 9.91863 10.3465 9.46854L10.5568 9.26943C11.077 8.78008 11.4598 8.41972 11.3869 7.54338C11.3826 7.49776 11.3945 7.45209 11.4206 7.41438C11.4352 7.39214 11.454 7.373 11.476 7.35807C11.498 7.34313 11.5228 7.33269 11.5488 7.32735C11.5749 7.32201 11.6017 7.32187 11.6279 7.32694C11.654 7.33201 11.6788 7.34219 11.701 7.35689C11.759 7.39835 11.8265 7.4244 11.8973 7.43261C11.9262 7.43621 11.9554 7.43621 11.9842 7.43261C12.0011 7.40304 12.0143 7.37148 12.0235 7.33866L12.2815 6.60674C12.311 6.51962 12.3168 6.42622 12.2983 6.33612C12.2909 6.31021 12.2738 6.28812 12.2506 6.27443C12.2103 6.25776 12.1663 6.25196 12.123 6.2576C11.9901 6.27361 11.8643 6.32655 11.7599 6.41044C11.7274 6.43482 11.6883 6.4489 11.6477 6.45086C11.6071 6.45282 11.5669 6.44258 11.5322 6.42145C11.4975 6.40033 11.4699 6.36928 11.453 6.33233C11.4361 6.29538 11.4307 6.25421 11.4374 6.21413C11.6281 5.09241 11.5411 4.3703 11.2972 3.87534C11.1028 3.48688 10.7867 3.1727 10.397 2.98076L10.3395 3.02423L10.3339 3.02844ZM8.1928 5.20458C8.39751 5.2803 8.43958 5.45136 8.33301 5.51586C8.1928 5.59158 8.03015 5.4794 7.89834 5.43734C7.55622 5.32797 7.14959 5.31535 6.85514 5.49903C6.76943 5.55497 6.68916 5.61881 6.61537 5.68973C6.64263 5.58386 6.69025 5.48432 6.75559 5.39668C7.05144 5.0223 7.79739 5.00127 8.1942 5.20458H8.1928ZM9.48278 5.20458C9.27807 5.2803 9.2346 5.45136 9.34958 5.51586C9.46455 5.58036 9.65244 5.4794 9.78284 5.43734C10.125 5.32797 10.5302 5.31535 10.826 5.49903C10.9118 5.55497 10.992 5.61881 11.0658 5.68973C11.0393 5.58358 10.9916 5.4839 10.9256 5.39668C10.6297 5.0223 9.8838 5.00127 9.48839 5.20458H9.48278ZM7.07388 5.93651C7.06107 5.93144 7.04961 5.92349 7.04037 5.91328C7.03113 5.90306 7.02436 5.89086 7.02059 5.87762C7.01285 5.85429 7.01401 5.82893 7.02385 5.80641C7.03369 5.78389 7.0515 5.7658 7.07388 5.75563C7.40181 5.6287 7.76531 5.6287 8.09324 5.75563C8.11525 5.7655 8.13292 5.78302 8.14298 5.80495C8.15304 5.82687 8.1548 5.85169 8.14793 5.87481C8.14572 5.88613 8.14113 5.89685 8.13446 5.90625C8.1278 5.91566 8.11921 5.92354 8.10926 5.92938C8.09932 5.93521 8.08824 5.93886 8.07678 5.94009C8.06532 5.94132 8.05372 5.9401 8.04277 5.93651C7.98668 5.91688 7.93059 5.90005 7.87451 5.88603C7.88006 5.9066 7.88288 5.92782 7.88292 5.94913C7.88292 6.0116 7.8581 6.07152 7.81393 6.11569C7.76975 6.15987 7.70983 6.18469 7.64736 6.18469C7.58488 6.18469 7.52497 6.15987 7.48079 6.11569C7.43661 6.07152 7.4118 6.0116 7.4118 5.94913C7.41143 5.9184 7.41714 5.8879 7.42862 5.85939C7.34318 5.87049 7.25909 5.89022 7.17764 5.91828C7.14398 5.9295 7.11033 5.95053 7.07388 5.93651ZM9.86276 5.87341C9.85382 5.89767 9.84907 5.92327 9.84874 5.94913C9.84834 5.985 9.8561 6.0205 9.87142 6.05294C9.88674 6.08539 9.90923 6.11393 9.93719 6.13641C9.96515 6.1589 9.99784 6.17474 10.0328 6.18274C10.0678 6.19075 10.1041 6.19071 10.1391 6.18263C10.174 6.17454 10.2067 6.15863 10.2346 6.13608C10.2625 6.11353 10.2849 6.08494 10.3002 6.05247C10.3154 6.01999 10.3231 5.98447 10.3226 5.9486C10.3222 5.91272 10.3135 5.87743 10.2974 5.84537C10.4033 5.85713 10.5077 5.88016 10.6087 5.91407C10.6199 5.91696 10.6315 5.91752 10.6429 5.91573C10.6543 5.91394 10.6652 5.90982 10.6749 5.90364C10.6846 5.89746 10.693 5.88935 10.6994 5.87981C10.7059 5.87027 10.7103 5.8595 10.7125 5.84817C10.7188 5.82471 10.7165 5.79974 10.706 5.77785C10.6954 5.75595 10.6773 5.7386 10.655 5.72899C10.4902 5.67504 10.318 5.64713 10.1446 5.64626C9.97334 5.64659 9.80329 5.67501 9.64122 5.73039C9.6187 5.73976 9.60041 5.75708 9.58981 5.77905C9.57922 5.80102 9.57705 5.82611 9.58374 5.84957C9.58603 5.86077 9.59058 5.87139 9.59712 5.88077C9.60365 5.89016 9.61203 5.89811 9.62174 5.90414C9.63145 5.91018 9.64229 5.91417 9.65359 5.91588C9.6649 5.91759 9.67643 5.91697 9.68749 5.91407C9.74358 5.89584 9.79967 5.88042 9.85435 5.8678C9.86837 5.8678 9.86557 5.8678 9.86276 5.8678V5.87341ZM8.53773 7.79717C8.54171 7.78028 8.54937 7.76448 8.56016 7.7509C8.57894 7.72887 8.6056 7.71507 8.63442 7.71245C8.66325 7.70983 8.69196 7.7186 8.7144 7.73688C8.75672 7.77821 8.81241 7.80308 8.87144 7.80698C8.93324 7.80432 8.992 7.77942 9.03689 7.73688C9.04785 7.72767 9.06051 7.72071 9.07416 7.7164C9.0878 7.71208 9.10216 7.7105 9.11642 7.71174C9.13068 7.71297 9.14455 7.71701 9.15725 7.72361C9.16995 7.7302 9.18122 7.73924 9.19043 7.7502C9.19964 7.76115 9.2066 7.77381 9.21091 7.78746C9.21522 7.8011 9.21681 7.81546 9.21557 7.82972C9.21433 7.84398 9.2103 7.85785 9.2037 7.87055C9.1971 7.88325 9.18807 7.89452 9.17711 7.90373C9.09334 7.97986 8.98463 8.02274 8.87144 8.02432C8.7801 8.02351 8.69151 7.99299 8.61905 7.93738C8.57138 7.90373 8.52511 7.86728 8.54053 7.79717H8.53773ZM8.17036 8.77026C8.16693 8.74924 8.16949 8.72768 8.17772 8.70804C8.18596 8.68841 8.19956 8.67148 8.21696 8.6592C8.23436 8.64691 8.25486 8.63977 8.27613 8.63858C8.29739 8.6374 8.31856 8.64221 8.33722 8.65248C8.49734 8.7416 8.677 8.78977 8.86022 8.7927C9.04097 8.79108 9.21823 8.74278 9.37481 8.65248C9.40159 8.63761 9.43318 8.63398 9.46263 8.64239C9.49208 8.65081 9.51698 8.67058 9.53186 8.69735C9.54673 8.72413 9.55036 8.75571 9.54195 8.78516C9.53353 8.81462 9.51376 8.83952 9.48699 8.85439C9.29672 8.96392 9.08117 9.02192 8.86163 9.02265C8.6713 9.0207 8.4837 8.97715 8.31198 8.89506C8.25449 8.86841 8.18158 8.84318 8.17176 8.77026H8.17036Z" fill="#24223E"/>
</g>
<defs>
<clipPath id="clip0_54653_1754">
<rect width="17.2297" height="16" fill="white"/>
</clipPath>
</defs>
</svg>
