<svg width="21" height="21" viewBox="0 0 21 21" fill="none" xmlns="http://www.w3.org/2000/svg">
<g clip-path="url(#clip0_54709_1437)">
<path d="M9.85845 2.31232C10.0927 2.10398 10.3139 2.10398 10.5221 2.31232L18.7596 10.5936C18.9938 10.8019 18.9938 11.0102 18.7596 11.2186L10.5221 19.4998C10.3139 19.7082 10.0927 19.7082 9.85845 19.4998L9.58517 19.1873C9.37696 18.979 9.37696 18.7576 9.58517 18.5233L16.5734 11.5701H1.89426C1.58194 11.5701 1.42578 11.4139 1.42578 11.1014V10.7108C1.42578 10.3983 1.58194 10.242 1.89426 10.242H16.5734L9.58517 3.28888C9.37696 3.0545 9.37696 2.83315 9.58517 2.62482L9.85845 2.31232Z" fill="#38363C"/>
</g>
<defs>
<clipPath id="clip0_54709_1437">
<rect width="17.46" height="20" fill="white" transform="matrix(1 0 0 -1 1.41992 20.9061)"/>
</clipPath>
</defs>
</svg>
