<svg width="18" height="21" viewBox="0 0 18 21" fill="none" xmlns="http://www.w3.org/2000/svg">
<g clip-path="url(#clip0_54709_1432)">
<path d="M8.85845 2.31232C9.09269 2.10398 9.31392 2.10398 9.52213 2.31232L17.7596 10.5936C17.9938 10.8019 17.9938 11.0102 17.7596 11.2186L9.52213 19.4998C9.31392 19.7082 9.09269 19.7082 8.85845 19.4998L8.58517 19.1873C8.37696 18.979 8.37696 18.7576 8.58517 18.5233L15.5734 11.5701H0.894263C0.581942 11.5701 0.425781 11.4139 0.425781 11.1014V10.7108C0.425781 10.3983 0.581942 10.242 0.894263 10.242H15.5734L8.58517 3.28888C8.37696 3.0545 8.37696 2.83315 8.58517 2.62482L8.85845 2.31232Z" fill="white"/>
</g>
<defs>
<clipPath id="clip0_54709_1432">
<rect width="17.46" height="20" fill="white" transform="matrix(1 0 0 -1 0.419922 20.9061)"/>
</clipPath>
</defs>
</svg>
