<svg width="20" height="16" viewBox="0 0 20 16" fill="none" xmlns="http://www.w3.org/2000/svg">
<g clip-path="url(#clip0_54653_1757)">
<path d="M8.58729 8.09387C8.51222 8.13792 8.42628 8.14754 8.3481 8.12737C8.26993 8.10705 8.1995 8.0568 8.15529 7.98187C8.11124 7.9068 8.10162 7.82055 8.12194 7.74253C8.14211 7.66451 8.19221 7.59393 8.26713 7.54987L13.8627 4.20617L14.3583 2.66105C14.3705 2.62274 14.3893 2.5883 14.413 2.55883C14.4378 2.52812 14.4679 2.50268 14.5013 2.48329L17.3545 0.835328C17.4302 0.791584 17.5168 0.782588 17.5948 0.803528C17.6731 0.824469 17.7434 0.875348 17.7871 0.951045C17.8092 0.989203 17.8223 1.02969 17.8273 1.07048C17.8324 1.11237 17.8292 1.15456 17.818 1.19458L17.5644 2.48189L18.8515 2.94538C18.9336 2.97486 18.9963 3.03504 19.0305 3.1081C19.065 3.18116 19.0715 3.26756 19.042 3.34962C19.029 3.38576 19.0102 3.41787 18.9871 3.44548C18.9718 3.46378 18.9544 3.48038 18.9355 3.4945L18.9372 3.49713L18.9027 3.51699L16.0492 5.16449C16.0082 5.18806 15.964 5.20156 15.9197 5.20575C15.8736 5.20994 15.8275 5.20404 15.7849 5.18884L14.1803 4.75141L8.58761 8.09371L8.58729 8.09387ZM10.0702 0.274269C10.7927 0.468011 11.4656 0.754667 12.0793 1.11811C12.7134 1.49364 13.2845 1.95108 13.782 2.47259C13.8047 2.49616 13.8036 2.5337 13.7798 2.55619C13.7783 2.55775 13.7766 2.5593 13.7749 2.56054L13.3294 2.89745C13.3046 2.91622 13.2693 2.91234 13.2492 2.88908C12.7973 2.42404 12.2808 2.01608 11.7089 1.68071C11.1546 1.35559 10.5475 1.09872 9.89602 0.924054C8.93755 0.667336 7.97257 0.613045 7.04652 0.734967C6.08448 0.861697 5.16449 1.1786 4.33725 1.65621C3.50985 2.13397 2.77537 2.77227 2.18469 3.54196C1.61603 4.28296 1.18062 5.14572 0.923899 6.10418C0.667181 7.06265 0.61289 8.02763 0.734812 8.95353C0.861542 9.91525 1.17845 10.8356 1.65621 11.6628L1.65776 11.6659C2.13521 12.4919 2.77289 13.2254 3.54181 13.8155C4.28265 14.3842 5.14541 14.8197 6.10372 15.0765C7.06203 15.3332 8.02701 15.3875 8.95291 15.2655C9.91463 15.1388 10.8348 14.8219 11.6622 14.3442C12.4896 13.8665 13.2242 13.2281 13.8149 12.4585C14.3835 11.7176 14.8191 10.8546 15.0757 9.89648C15.2468 9.25818 15.3281 8.61723 15.3271 7.98715C15.3263 7.33705 15.2381 6.69735 15.0707 6.08324C15.0627 6.05377 15.0785 6.02352 15.1062 6.01251L15.6166 5.78635C15.6465 5.77316 15.6816 5.78681 15.6946 5.8166C15.6961 5.82001 15.6974 5.82342 15.698 5.82683C15.891 6.50764 15.9947 7.21885 15.9996 7.94356C16.0042 8.64577 15.9158 9.35993 15.7255 10.0702C15.445 11.1165 14.9696 12.0585 14.3486 12.8676C13.7037 13.7082 12.9017 14.4051 11.9988 14.9266L11.9955 14.9285C11.0932 15.4487 10.0898 15.7942 9.0407 15.9322C8.02934 16.0655 6.97579 16.0064 5.92983 15.7261C4.88372 15.4458 3.94185 14.9704 3.13261 14.3494C2.29234 13.7044 1.59525 12.9025 1.07374 11.9994C0.552394 11.096 0.206328 10.0915 0.067964 9.04086C-0.0651264 8.0295 -0.00602682 6.97594 0.274269 5.92999C0.554566 4.88372 1.03015 3.9417 1.65093 3.13261C2.29591 2.29203 3.09786 1.59494 4.0008 1.07359C4.90404 0.552239 5.90858 0.206328 6.95903 0.067964C7.97039 -0.0651264 9.0241 -0.00602682 10.0702 0.274269ZM8.65989 5.6424C8.7618 5.67094 8.86077 5.70553 8.95647 5.74602C9.05482 5.78759 9.14944 5.83506 9.23972 5.88795C9.26779 5.90439 9.27726 5.94054 9.26081 5.96877C9.25678 5.97575 9.25151 5.98149 9.24546 5.98598L8.7542 6.35765C8.7359 6.37145 8.71216 6.373 8.69277 6.36369C8.65818 6.34896 8.62313 6.33546 8.58823 6.32321C8.55317 6.3108 8.51672 6.29948 8.47902 6.28877L8.46181 6.28489L8.45963 6.28427C8.22711 6.22207 7.99304 6.20889 7.76874 6.23836C7.5356 6.26907 7.31254 6.34601 7.11198 6.46173C6.91141 6.5776 6.73318 6.73241 6.59001 6.91901C6.45211 7.09864 6.34648 7.30789 6.28412 7.54026C6.22192 7.77278 6.20873 8.00685 6.2382 8.2313C6.26892 8.46444 6.3457 8.6875 6.46157 8.88822C6.57744 9.08879 6.73225 9.26686 6.9187 9.41004C7.09848 9.54809 7.30774 9.65357 7.53995 9.71593C7.54289 9.7167 7.546 9.71779 7.54863 9.71903C7.77805 9.77921 8.00902 9.79147 8.23053 9.76215C8.46367 9.73128 8.68688 9.65435 8.8876 9.53847C9.08863 9.42245 9.26686 9.26748 9.41004 9.08134L9.40988 9.08119C9.54793 8.90172 9.65341 8.69277 9.71593 8.46088L9.72616 8.42008C9.73097 8.40131 9.74431 8.38673 9.76122 8.3799L10.3595 8.11481C10.3894 8.10162 10.4243 8.11527 10.4377 8.14506C10.4417 8.15452 10.4433 8.16445 10.4423 8.17406C10.4369 8.25038 10.4274 8.32732 10.4146 8.40441C10.4015 8.48089 10.3851 8.5572 10.3648 8.63305L10.3646 8.63337L10.3643 8.63492L10.3635 8.63755C10.2776 8.95663 10.1324 9.24406 9.94286 9.49101C9.74555 9.74835 9.50016 9.96163 9.22405 10.1212L9.22079 10.1231C8.9453 10.2815 8.6391 10.3867 8.31894 10.4288C8.01197 10.4692 7.69227 10.4516 7.37506 10.3679C7.37195 10.3676 7.36885 10.367 7.3659 10.3662C7.04574 10.2804 6.75707 10.1347 6.50935 9.94457C6.25201 9.74711 6.03841 9.50156 5.8788 9.22467C5.71918 8.9481 5.61308 8.64035 5.57089 8.31894C5.5301 8.00902 5.54809 7.68638 5.63387 7.36622C5.71965 7.04605 5.8653 6.75754 6.05548 6.50981C6.25294 6.25232 6.49865 6.03888 6.77522 5.87926L6.77848 5.8774C7.05412 5.71887 7.36063 5.61355 7.6811 5.57136C7.99087 5.53056 8.31351 5.54856 8.63352 5.63434L8.63616 5.63511C8.64019 5.6362 8.64391 5.63728 8.64701 5.63837C8.65167 5.63945 8.65601 5.64085 8.65989 5.6424ZM9.36055 2.92196C9.78123 3.03473 10.1765 3.19543 10.5416 3.39677C10.9181 3.60432 11.2624 3.85499 11.5705 4.1404C11.5944 4.16274 11.5958 4.20012 11.5736 4.22401C11.5711 4.22649 11.5688 4.22882 11.566 4.23084L11.1159 4.57132C11.0918 4.58947 11.0585 4.58652 11.038 4.56558C10.7772 4.33446 10.4878 4.13141 10.1734 3.96233C9.86701 3.79775 9.53708 3.66559 9.18667 3.57175C8.58683 3.41104 7.9828 3.37707 7.40329 3.45339C6.80159 3.53266 6.2258 3.7309 5.70801 4.02981L5.70491 4.03136C5.18853 4.32996 4.73 4.72892 4.36082 5.20978C4.00499 5.67342 3.73245 6.21354 3.5719 6.81322C3.4112 7.41306 3.37723 8.01693 3.45339 8.59629C3.53266 9.1983 3.73105 9.77425 4.02981 10.2919C4.32872 10.8095 4.72814 11.2693 5.20978 11.6388C5.67358 11.9947 6.21354 12.2673 6.81322 12.428C7.4129 12.5888 8.01693 12.6228 8.59614 12.5465C9.19814 12.4671 9.77409 12.2688 10.2919 11.9699C10.8097 11.6709 11.2693 11.2714 11.6389 10.79C11.9946 10.3263 12.2673 9.78635 12.4278 9.18667C12.5161 8.85735 12.5662 8.52727 12.5806 8.20105C12.5957 7.86523 12.573 7.53281 12.5161 7.20877C12.5113 7.1807 12.527 7.15386 12.5522 7.14362L13.0714 6.91358C13.1012 6.9004 13.1363 6.91405 13.1494 6.94383C13.1519 6.94926 13.1532 6.95469 13.1539 6.96012C13.233 7.3507 13.2683 7.75323 13.2554 8.16088C13.243 8.55844 13.185 8.96066 13.0778 9.36071C12.8935 10.0483 12.5809 10.6674 12.1728 11.1993C11.749 11.7515 11.2218 12.2097 10.628 12.5525L10.6282 12.5527C10.0345 12.8954 9.37405 13.1229 8.68362 13.2138C8.01879 13.3013 7.32635 13.2625 6.63903 13.0784C5.95139 12.8941 5.33232 12.5814 4.80027 12.1733C4.2479 11.7494 3.78968 11.2223 3.44703 10.6288L3.44517 10.6254C3.10345 10.0327 2.87667 9.37343 2.78592 8.68424C2.69844 8.01941 2.73722 7.32697 2.92149 6.63949C3.10577 5.95201 3.41818 5.33279 3.82645 4.80089C4.25038 4.24837 4.77747 3.79015 5.3711 3.4475L5.37436 3.44564C5.96722 3.10391 6.62631 2.87713 7.31534 2.78654C7.98063 2.6989 8.67323 2.73784 9.36055 2.92196ZM16.8921 2.62615L17.0685 1.73175L14.9229 2.97051L14.5312 4.19206L15.8461 4.55053L17.9962 3.30913L17.0953 2.98447C17.0224 2.95841 16.9636 2.90691 16.9273 2.8427C16.8912 2.77925 16.8769 2.70309 16.8921 2.62615Z" fill="#24223E"/>
</g>
<defs>
<clipPath id="clip0_54653_1757">
<rect width="19.0606" height="16" fill="white"/>
</clipPath>
</defs>
</svg>
