<svg width="16" height="16" viewBox="0 0 16 16" fill="none" xmlns="http://www.w3.org/2000/svg">
<g clip-path="url(#clip0_54643_1273)">
<path d="M14.7684 5.69689C13.9985 4.93283 12.9215 4.38872 11.7358 4.16476C11.5927 4.13782 11.4547 4.23185 11.4277 4.37497C11.4006 4.5181 11.4947 4.65605 11.6379 4.68309C13.8958 5.10957 15.4728 6.67883 15.4728 8.49925C15.4728 9.99854 14.4055 11.3461 12.6874 12.0159C12.5997 12.0502 12.5369 12.1285 12.5226 12.2216C12.4184 12.8985 12.5606 13.5874 12.9083 14.1613C12.1492 13.9585 11.5343 13.3759 11.2951 12.5865C11.259 12.4672 11.1438 12.3893 11.0199 12.4003C10.8336 12.4164 10.6459 12.4247 10.4619 12.4247C8.8211 12.4247 7.28098 11.7917 6.34205 10.7314C6.24552 10.6224 6.07884 10.6123 5.96976 10.7088C5.86071 10.8054 5.85058 10.9721 5.94715 11.0811C6.98465 12.2527 8.67242 12.9521 10.4619 12.9521C10.5933 12.9521 10.7264 12.9483 10.8597 12.9406C11.0509 13.4337 11.3798 13.8728 11.8011 14.1926C12.2961 14.5683 12.886 14.7669 13.507 14.7669C13.6135 14.7669 13.7095 14.7029 13.7504 14.6047C13.7914 14.5064 13.7693 14.3932 13.6944 14.3176C13.2081 13.8266 12.9638 13.1369 13.0261 12.4479C13.8778 12.0903 14.5999 11.5606 15.1217 10.9091C15.6965 10.1914 16.0003 9.35811 16.0003 8.49925C16.0003 7.48056 15.5628 6.48532 14.7684 5.69689Z" fill="#24223E"/>
<path d="M11.0769 5.68527C11.0769 4.48422 10.4928 3.35891 9.43223 2.51661C8.38949 1.68847 7.00663 1.23242 5.53846 1.23242C4.07019 1.23242 2.6873 1.68847 1.64462 2.51661C0.584053 3.35891 0 4.48422 0 5.68527C0 6.54414 0.303824 7.37744 0.878593 8.09509C1.40037 8.74655 2.12255 9.27634 2.97421 9.6339C3.03645 10.3229 2.79223 11.0126 2.3059 11.5036C2.231 11.5792 2.20888 11.6924 2.24985 11.7907C2.29081 11.889 2.38685 11.953 2.49326 11.953C3.11434 11.953 3.70423 11.7544 4.19917 11.3786C4.62052 11.0588 4.94942 10.6197 5.14061 10.1266C5.27385 10.1343 5.40698 10.1382 5.53843 10.1382C7.00663 10.1382 8.38949 9.68211 9.43219 8.85398C10.4928 8.01164 11.0769 6.88633 11.0769 5.68527ZM4.98043 9.58625C4.85609 9.57539 4.74134 9.65313 4.7052 9.77252C4.46604 10.5619 3.85118 11.1445 3.09201 11.3472C3.43968 10.7734 3.58196 10.0844 3.47773 9.40751C3.46342 9.31446 3.40058 9.23612 3.31288 9.2019C1.5948 8.53208 0.527472 7.18456 0.527472 5.68527C0.527472 3.52081 2.77538 1.75989 5.53846 1.75989C8.30154 1.75989 10.5494 3.52081 10.5494 5.68527C10.5494 7.84974 8.30154 9.61066 5.53846 9.61066C5.35444 9.61066 5.1667 9.60246 4.98043 9.58625Z" fill="#24223E"/>
</g>
<defs>
<clipPath id="clip0_54643_1273">
<rect width="16" height="16" fill="white"/>
</clipPath>
</defs>
</svg>
