<svg width="19" height="19" viewBox="0 0 19 19" fill="none" xmlns="http://www.w3.org/2000/svg">
<path d="M9.21143 8.25677C10.5546 8.25677 11.6435 7.16788 11.6435 5.82467C11.6435 4.48147 10.5546 3.39258 9.21143 3.39258C7.86822 3.39258 6.7793 4.48147 6.7793 5.82467C6.7793 7.16788 7.86822 8.25677 9.21143 8.25677ZM9.21143 3.95506C10.2423 3.95506 11.081 4.79375 11.081 5.82467C11.081 6.85556 10.2423 7.69428 9.21143 7.69428C8.1805 7.69428 7.34178 6.85559 7.34178 5.82467C7.34178 4.79375 8.1805 3.95506 9.21143 3.95506Z" fill="#332C5C"/>
<path d="M4.28125 11.1161C4.28125 13.3839 4.28125 13.9097 4.28125 13.9097C4.28125 13.9097 9.07961 13.9097 9.09614 13.9097L6.74619 8.81543C6.74619 8.81543 4.28125 8.84834 4.28125 11.1161ZM4.84373 13.3472V11.1161C4.84373 9.85873 5.84225 9.51071 6.40305 9.41443L8.21719 13.3472H4.84373Z" fill="#332C5C"/>
<path d="M11.6761 8.81543L9.32617 13.9097H14.1411C14.1411 13.9097 14.1411 13.3839 14.1411 11.1161C14.1411 8.84834 11.6761 8.81543 11.6761 8.81543ZM13.5786 13.3472H10.2051L12.0206 9.4116C12.5805 9.50369 13.5786 9.84598 13.5786 11.1161V13.3472Z" fill="#332C5C"/>
<path d="M9.2102 8.81543H7.51758L9.2102 12.5622L10.9028 8.81543H9.2102Z" fill="#332C5C"/>
<path d="M9.21094 0.580078C4.24033 0.580078 0.210938 4.60951 0.210938 9.58008C0.210938 14.5506 4.24033 18.5801 9.21094 18.5801C14.1815 18.5801 18.2109 14.5506 18.2109 9.58008C18.2109 4.60951 14.1815 0.580078 9.21094 0.580078ZM9.21094 18.0176C4.55845 18.0176 0.773456 14.2325 0.773456 9.58008C0.773456 4.92759 4.55845 1.1426 9.21094 1.1426C13.8634 1.1426 17.6485 4.92763 17.6485 9.58012C17.6485 14.2325 13.8634 18.0176 9.21094 18.0176Z" fill="#332C5C"/>
</svg>
