<svg width="25" height="32" viewBox="0 0 25 32" fill="none" xmlns="http://www.w3.org/2000/svg">
<g clip-path="url(#clip0_54727_1775)">
<path d="M12.5 5.93896C10.5716 5.93896 8.68657 6.51079 7.08319 7.58213C5.47982 8.65347 4.23013 10.1762 3.49218 11.9578C2.75422 13.7394 2.56114 15.6998 2.93735 17.5911C3.31355 19.4824 4.24215 21.2197 5.60571 22.5833C6.96928 23.9469 8.70656 24.8755 10.5979 25.2517C12.4892 25.6279 14.4496 25.4348 16.2312 24.6968C18.0127 23.9589 19.5355 22.7092 20.6068 21.1058C21.6782 19.5024 22.25 17.6174 22.25 15.689C22.247 13.104 21.2188 10.6258 19.391 8.79798C17.5632 6.97015 15.0849 5.94195 12.5 5.93896ZM17.1436 13.9817L11.6431 19.2317C11.5032 19.3648 11.3176 19.439 11.1245 19.439C10.9315 19.439 10.7458 19.3648 10.606 19.2317L7.85645 16.6067C7.7128 16.4691 7.62965 16.2801 7.62524 16.0813C7.62084 15.8824 7.69555 15.6899 7.83297 15.5461C7.97038 15.4023 8.15927 15.3189 8.35813 15.3142C8.55699 15.3096 8.74956 15.384 8.89356 15.5213L11.1245 17.6519L16.1064 12.8962C16.2504 12.759 16.443 12.6845 16.6419 12.6892C16.8407 12.6939 17.0296 12.7772 17.167 12.9211C17.3045 13.0649 17.3792 13.2574 17.3748 13.4563C17.3704 13.6551 17.2872 13.8441 17.1436 13.9817Z" fill="#3E57DA"/>
</g>
<defs>
<clipPath id="clip0_54727_1775">
<rect width="24" height="31" fill="white" transform="translate(0.5 0.126465)"/>
</clipPath>
</defs>
</svg>
