<svg width="23" height="16" viewBox="0 0 23 16" fill="none" xmlns="http://www.w3.org/2000/svg">
<g clip-path="url(#clip0_54653_1764)">
<path d="M0.396981 16C0.177453 16 0 15.8335 0 15.6268C0 15.4201 0.177453 15.2536 0.396981 15.2536H2.07272V3.76675C2.07272 3.64784 2.12211 3.53807 2.20078 3.45941C2.28127 3.37892 2.38921 3.32952 2.50812 3.32952H4.89001C5.01075 3.32952 5.11868 3.37892 5.19735 3.45941C5.27601 3.53807 5.32541 3.64784 5.32541 3.76675V15.2518H7.0981V7.0981C7.0981 6.97919 7.1475 6.87126 7.22616 6.79076C7.30482 6.7121 7.41459 6.6627 7.53167 6.6627H9.91356C10.0361 6.6627 10.1441 6.7121 10.2209 6.79076C10.2996 6.86943 10.349 6.98102 10.349 7.0981V15.2518H12.1217V0.435399C12.1217 0.316488 12.171 0.208552 12.2497 0.128059C12.3339 0.049394 12.4418 0 12.5625 0H14.9444C15.0652 0 15.1731 0.049394 15.2518 0.128059C15.3304 0.206723 15.3798 0.318317 15.3798 0.435399V15.2518H17.1525V4.71987C17.1525 4.60096 17.2019 4.4912 17.2806 4.41253C17.3592 4.33387 17.469 4.28447 17.5898 4.28447H19.9716C20.0924 4.28447 20.2021 4.33387 20.279 4.41253C20.3576 4.4912 20.407 4.60096 20.407 4.71987V15.2536H22.0828C22.3023 15.2536 22.4798 15.4201 22.4798 15.6268C22.4798 15.8335 22.3023 16 22.0828 16H20.021C20.0174 16 20.0137 16 20.0101 16H17.5513C17.5477 16 17.544 16 17.5404 16H14.9938C14.9902 16 14.9865 16 14.9828 16H12.5241C12.5205 16 12.5168 16 12.5131 16H9.96844C9.96478 16 9.96112 16 9.95747 16H7.49691C7.49325 16 7.48959 16 7.48594 16H4.9394H4.92842H2.4697H2.45872H0.396981ZM4.53144 4.12531H2.86668V15.2042H4.53144V4.12531ZM9.55865 7.45667H7.89389V15.2042H9.55865V7.45667ZM14.5859 0.793963H12.9211V15.2042H14.5859V0.793963ZM19.6112 5.07844H17.9465V15.206H19.6112V5.07844Z" fill="#24223E"/>
</g>
<defs>
<clipPath id="clip0_54653_1764">
<rect width="22.4798" height="16" fill="white"/>
</clipPath>
</defs>
</svg>
