<svg width="15" height="16" viewBox="0 0 15 16" fill="none" xmlns="http://www.w3.org/2000/svg">
<g clip-path="url(#clip0_54643_1257)">
<path d="M10.924 0.661464H3.61839C1.99194 0.661464 0.661464 1.99207 0.661464 3.61852V8.83718C0.661464 10.4634 1.9922 11.7942 3.61839 11.7942H5.91567C5.58702 13.0945 5.18897 14.2629 3.97295 15.3413C6.2981 14.7466 8.09304 13.5444 9.41036 11.7942H9.80763C11.4337 11.7942 13.8812 10.4636 13.8812 8.83718V3.61852C13.881 1.99207 12.5505 0.661464 10.924 0.661464ZM10.5638 5.34757C9.97118 5.34757 9.49083 5.82817 9.49083 6.42076C9.49083 7.01334 9.97118 7.49394 10.5638 7.49394C11.1566 7.49394 11.6369 7.01334 11.6369 6.42076C11.6369 5.82817 11.1566 5.34757 10.5638 5.34757ZM3.97868 5.34757C3.38597 5.34757 2.90549 5.82817 2.90549 6.42076C2.90549 7.01334 3.38597 7.49394 3.97868 7.49394C4.57126 7.49394 5.05186 7.01334 5.05186 6.42076C5.05186 5.82817 4.57126 5.34757 3.97868 5.34757ZM7.27128 5.34757C6.6787 5.34757 6.1981 5.82817 6.1981 6.42076C6.1981 7.01334 6.6787 7.49394 7.27128 7.49394C7.864 7.49394 8.34434 7.01334 8.34434 6.42076C8.34434 5.82817 7.864 5.34757 7.27128 5.34757ZM3.61839 0H10.9242H10.925V0.00260419C11.9221 0.00286461 12.8265 0.408727 13.4801 1.06238L13.4788 1.06368C14.1333 1.71902 14.5397 2.6232 14.54 3.61813H14.5426V3.61852H14.54V8.83718H14.5426V8.8377H14.54C14.5394 9.90151 13.8004 10.8285 12.816 11.4759C11.8992 12.0786 10.7415 12.453 9.80763 12.4531V12.4558H9.80737V12.4531H9.73237C9.07299 13.2746 8.30775 13.9758 7.43105 14.5514C6.4619 15.1879 5.36541 15.6674 4.13545 15.982L4.13493 15.9799C3.90342 16.0385 3.64834 15.9689 3.4792 15.7779C3.23805 15.5053 3.26357 15.0888 3.5361 14.8476C4.0723 14.3723 4.4279 13.8775 4.68533 13.3588C4.82869 13.0699 4.94392 12.7685 5.04405 12.4554H3.61826H3.61735V12.4527C2.62046 12.4524 1.71603 12.0466 1.06238 11.3929C0.408597 10.7394 0.0027344 9.83471 0.00260419 8.83744H0V8.83705H0.00260419V3.61852H0V3.61761H0.00260419C0.0027344 2.64091 0.393623 1.75262 1.02579 1.10209C1.03738 1.08855 1.04936 1.07527 1.06212 1.06251C1.7159 0.408727 2.62046 0.00260419 3.61787 0.00247398V0H3.61839Z" fill="#24223E"/>
</g>
<defs>
<clipPath id="clip0_54643_1257">
<rect width="14.5426" height="16" fill="white"/>
</clipPath>
</defs>
</svg>
