<svg width="16" height="16" viewBox="0 0 16 16" fill="none" xmlns="http://www.w3.org/2000/svg">
<g clip-path="url(#clip0_54643_1282)">
<path d="M14.2545 0C13.2919 0 12.5091 0.782836 12.5091 1.74545C12.5091 2.04655 12.5856 2.32989 12.7203 2.57745L9.86094 5.4368C9.46676 5.12989 8.97338 4.94545 8.43636 4.94545C7.89935 4.94545 7.40596 5.12989 7.01149 5.43651L4.78051 3.20553C4.88291 3.03244 4.94545 2.83345 4.94545 2.61818C4.94545 1.97644 4.42356 1.45455 3.78182 1.45455C3.14007 1.45455 2.61818 1.97644 2.61818 2.61818C2.61818 3.25993 3.14007 3.78182 3.78182 3.78182C3.99709 3.78182 4.19607 3.71927 4.36916 3.61687L6.60015 5.84785C6.29353 6.24233 6.10909 6.73571 6.10909 7.27273C6.10909 7.80975 6.29353 8.30313 6.60015 8.69731L2.91607 12.3817C2.60596 12.1004 2.19607 11.9273 1.74545 11.9273C0.782836 11.9273 0 12.7101 0 13.6727C0 14.6353 0.782836 15.4182 1.74545 15.4182C2.70807 15.4182 3.49091 14.6353 3.49091 13.6727C3.49091 13.3716 3.4144 13.0883 3.27971 12.8407L7.01178 9.10865C7.33353 9.35884 7.7216 9.5264 8.14575 9.57964V12.5353C7.3216 12.6743 6.6912 13.3911 6.6912 14.2545C6.6912 15.2172 7.47404 16 8.43665 16C9.39927 16 10.1821 15.2172 10.1821 14.2545C10.1821 13.3914 9.55171 12.6746 8.72756 12.5353V9.57964C9.15171 9.5264 9.53978 9.35884 9.86153 9.10865L12.0925 11.3396C11.9898 11.513 11.9273 11.712 11.9273 11.9273C11.9273 12.569 12.4492 13.0909 13.0909 13.0909C13.7327 13.0909 14.2545 12.569 14.2545 11.9273C14.2545 11.2855 13.7327 10.7636 13.0909 10.7636C12.8756 10.7636 12.6767 10.8262 12.5036 10.9286L10.2726 8.6976C10.5792 8.30313 10.7636 7.80975 10.7636 7.27273C10.7636 6.73571 10.5792 6.24233 10.2726 5.84815L13.0842 3.03651C13.394 3.31782 13.8039 3.49091 14.2545 3.49091C15.2172 3.49091 16 2.70807 16 1.74545C16 0.782836 15.2172 0 14.2545 0ZM3.2 2.61818C3.2 2.29731 3.46095 2.03636 3.78182 2.03636C4.10269 2.03636 4.36364 2.29731 4.36364 2.61818C4.36364 2.93905 4.10269 3.2 3.78182 3.2C3.46095 3.2 3.2 2.93905 3.2 2.61818ZM1.74545 14.8364C1.10371 14.8364 0.581818 14.3145 0.581818 13.6727C0.581818 13.031 1.10371 12.5091 1.74545 12.5091C2.3872 12.5091 2.90909 13.031 2.90909 13.6727C2.90909 14.3145 2.3872 14.8364 1.74545 14.8364ZM9.6 14.2545C9.6 14.8963 9.07811 15.4182 8.43636 15.4182C7.79462 15.4182 7.27273 14.8963 7.27273 14.2545C7.27273 13.6128 7.79462 13.0909 8.43636 13.0909C9.07811 13.0909 9.6 13.6128 9.6 14.2545ZM8.43636 9.01818C7.47375 9.01818 6.69091 8.23534 6.69091 7.27273C6.69091 6.31011 7.47375 5.52727 8.43636 5.52727C9.39898 5.52727 10.1818 6.31011 10.1818 7.27273C10.1818 8.23534 9.39898 9.01818 8.43636 9.01818ZM13.6727 11.9273C13.6727 12.2481 13.4118 12.5091 13.0909 12.5091C12.77 12.5091 12.5091 12.2481 12.5091 11.9273C12.5091 11.6064 12.77 11.3455 13.0909 11.3455C13.4118 11.3455 13.6727 11.6064 13.6727 11.9273ZM14.2545 2.90909C13.6128 2.90909 13.0909 2.3872 13.0909 1.74545C13.0909 1.10371 13.6128 0.581818 14.2545 0.581818C14.8963 0.581818 15.4182 1.10371 15.4182 1.74545C15.4182 2.3872 14.8963 2.90909 14.2545 2.90909Z" fill="#24223E"/>
</g>
<defs>
<clipPath id="clip0_54643_1282">
<rect width="16" height="16" fill="white"/>
</clipPath>
</defs>
</svg>
