<svg width="19" height="19" viewBox="0 0 19 19" fill="none" xmlns="http://www.w3.org/2000/svg">
<path d="M7.19366 15.0645C6.9618 15.0645 6.77344 15.2523 6.77344 15.4845C6.77344 15.7166 6.96184 15.9047 7.19366 15.9047C7.42582 15.9047 7.61393 15.7166 7.61393 15.4845C7.61393 15.2523 7.42582 15.0645 7.19366 15.0645Z" fill="#24223E"/>
<path d="M7.19366 13.4941C6.9618 13.4941 6.77344 13.6822 6.77344 13.9144C6.77344 14.1463 6.96184 14.3344 7.19366 14.3344C7.42582 14.3344 7.61393 14.1463 7.61393 13.9144C7.61393 13.6822 7.42582 13.4941 7.19366 13.4941Z" fill="#24223E"/>
<path d="M18.2363 8.44141H7.61358H7.53657H6.77305H3.81521H3.05176V9.20463V17.0546V17.8182H3.81525H6.77309H7.53661H7.61361H18.2363H18.9998V17.0546V9.20463V8.44141H18.2363ZM18.2363 17.0546H7.61358C7.61358 16.8225 7.42547 16.6346 7.19331 16.6346C6.96145 16.6346 6.77309 16.8225 6.77309 17.0546H3.81525V9.20463H6.77309C6.77309 9.43675 6.96149 9.62464 7.19331 9.62464C7.42547 9.62464 7.61358 9.43679 7.61358 9.20463H18.2363L18.2363 17.0546Z" fill="#24223E"/>
<path d="M7.19366 11.9258C6.9618 11.9258 6.77344 12.1139 6.77344 12.346C6.77344 12.5779 6.96184 12.766 7.19366 12.766C7.42582 12.766 7.61393 12.5779 7.61393 12.346C7.61393 12.1139 7.42582 11.9258 7.19366 11.9258Z" fill="#24223E"/>
<path d="M7.19366 10.3555C6.9618 10.3555 6.77344 10.5433 6.77344 10.7755C6.77344 11.0076 6.96184 11.1957 7.19366 11.1957C7.42582 11.1957 7.61393 11.0076 7.61393 10.7755C7.61393 10.5433 7.42582 10.3555 7.19366 10.3555Z" fill="#24223E"/>
<path d="M4.37319 7.28099L13.7104 2.21471L16.6754 7.67839H17.5436L14.3812 1.85025L14.0173 1.17969L13.3459 1.54332L4.00959 6.61016L3.94191 6.64672L3.27082 7.01061L0.671086 8.42158L0 8.78574L0.364154 9.45686L2.28865 13.0033V11.4025L1.03528 9.09271L2.28865 8.41223L4.37319 7.28099Z" fill="#24223E"/>
</svg>
