<svg width="17" height="16" viewBox="0 0 17 16" fill="none" xmlns="http://www.w3.org/2000/svg">
<g clip-path="url(#clip0_54652_1739)">
<path d="M8.00068 0C9.72307 0 11.3191 0.544698 12.6245 1.47109L12.1165 2.00764C10.9456 1.20214 9.52746 0.730792 8.00068 0.730792C5.99304 0.730792 4.17557 1.54444 2.86068 2.85933C1.54444 4.17557 0.730792 5.99304 0.730792 8.00068C0.730792 10.0083 1.54444 11.8258 2.85933 13.1407C4.17421 14.4556 5.99168 15.2692 7.99932 15.2692C10.007 15.2692 11.8244 14.4556 13.1393 13.1407C14.0304 12.2496 14.6905 11.1276 15.0247 9.87384C14.6933 9.68232 14.4705 9.32371 14.4705 8.91213C14.4705 8.40818 14.8074 7.98166 15.2678 7.84719C15.2352 6.26742 14.6987 4.81263 13.8117 3.63494L14.3211 3.09704C15.3507 4.42279 15.9728 6.08133 15.9986 7.88386C16.4048 8.04958 16.69 8.44758 16.69 8.91213C16.69 9.46905 16.2798 9.93089 15.7446 10.0097C15.382 11.4115 14.6484 12.6653 13.6555 13.6582C12.2075 15.1062 10.208 16.0014 7.99796 16.0014C5.78929 16.0014 3.78844 15.1062 2.34044 13.6582C0.895152 12.2102 0 10.2094 0 8.00068C0 5.792 0.895152 3.79115 2.34315 2.34315C3.79115 0.895152 5.79064 0 8.00068 0ZM8.00068 6.60158C8.24111 6.60158 8.46795 6.6627 8.66627 6.77001C8.67578 6.75643 8.68664 6.7442 8.69751 6.73334L13.2806 1.91256C13.4191 1.76721 13.6501 1.76042 13.7954 1.90033C13.9407 2.03888 13.9475 2.2698 13.8076 2.41515L9.22591 7.23457C9.21504 7.24544 9.20418 7.2563 9.19195 7.26581C9.32371 7.47907 9.39978 7.73037 9.39978 7.99932C9.39978 8.77222 8.77358 9.39842 8.00068 9.39842C7.22778 9.39842 6.60158 8.77222 6.60158 7.99932C6.60158 7.22778 7.22778 6.60158 8.00068 6.60158ZM8.48561 12.3501C8.89583 12.3501 9.25444 12.5729 9.44732 12.9043C10.2773 12.6598 11.0189 12.2102 11.6152 11.6152C12.5403 10.6902 13.1121 9.412 13.1121 8.00068C13.1121 6.98056 12.8133 6.02971 12.2985 5.23236L12.8201 4.68223C13.4708 5.62493 13.8524 6.76866 13.8524 8.00068C13.8524 9.61576 13.1977 11.0787 12.1382 12.1382C11.4387 12.8378 10.5625 13.3607 9.58316 13.6351C9.49894 14.1649 9.04117 14.571 8.48697 14.571C8.00068 14.571 7.5891 14.2586 7.43832 13.8253C6.04737 13.6922 4.79905 13.0728 3.8645 12.1382C2.80635 11.0801 2.15027 9.61711 2.15027 8.00068C2.15027 6.67357 2.59173 5.45106 3.33611 4.46897C3.27091 4.3277 3.23559 4.17149 3.23559 4.00577C3.23559 3.39316 3.73274 2.896 4.34536 2.896C4.54504 2.896 4.73385 2.94898 4.89549 3.04134C5.79608 2.47627 6.85966 2.15027 8.00068 2.15027C9.14984 2.15027 10.2202 2.4817 11.1249 3.05357L10.6046 3.60234C9.8426 3.15001 8.95152 2.89057 8.00068 2.89057C7.0444 2.89057 6.14789 3.15409 5.38178 3.61049C5.42932 3.7341 5.45513 3.86722 5.45513 4.00713C5.45513 4.61975 4.95798 5.1169 4.34536 5.1169C4.17149 5.1169 4.00577 5.07615 3.85907 5.00552C3.24917 5.84769 2.88921 6.88276 2.88921 8.00204C2.88921 9.41336 3.46107 10.6916 4.38611 11.6166C5.18754 12.418 6.25384 12.9546 7.4424 13.0836C7.59725 12.6544 8.00611 12.3501 8.48561 12.3501ZM8.00068 4.28967C8.57526 4.28967 9.11996 4.42007 9.60625 4.65371L9.11317 5.17395C9.09687 5.19025 9.08192 5.20791 9.06698 5.22557C8.73555 5.09789 8.37694 5.02861 8.00068 5.02861C7.18024 5.02861 6.43722 5.36141 5.89931 5.89931C5.36141 6.43722 5.02861 7.18024 5.02861 8.00068C5.02861 8.82112 5.36141 9.56414 5.89931 10.102C6.43722 10.64 7.18024 10.9727 8.00068 10.9727C8.82112 10.9727 9.56414 10.64 10.102 10.102C10.64 9.56414 10.9727 8.82112 10.9727 8.00068C10.9727 7.59725 10.8926 7.21419 10.7473 6.86374C10.7717 6.84201 10.7948 6.82027 10.8179 6.79582L11.296 6.29187C11.5623 6.80397 11.713 7.38535 11.713 8.00068C11.713 9.02487 11.2974 9.95263 10.6264 10.6237C9.95534 11.2947 9.02759 11.7103 8.0034 11.7103C6.9792 11.7103 6.05145 11.2947 5.38042 10.6237C4.7094 9.95263 4.29374 9.02487 4.29374 8.00068C4.29374 6.97648 4.7094 6.04873 5.38042 5.37771C6.04873 4.70532 6.97512 4.28967 8.00068 4.28967Z" fill="#24223E"/>
</g>
<defs>
<clipPath id="clip0_54652_1739">
<rect width="16.6914" height="16" fill="white"/>
</clipPath>
</defs>
</svg>
