<svg width="14" height="19" viewBox="0 0 14 19" fill="none" xmlns="http://www.w3.org/2000/svg">
<g clip-path="url(#clip0_54729_1422)">
<path d="M7.16679 17.1969C8.09111 16.6095 8.92167 15.8976 9.64531 15.1036C11.2171 13.3825 12.2776 11.2789 12.7024 9.21498C13.1243 7.17738 12.9251 5.1808 11.992 3.63978C11.7268 3.1974 11.3943 2.7931 10.9988 2.42982C9.86503 1.39711 8.56718 0.904919 7.26054 0.891736C5.88798 0.881482 4.49638 1.39711 3.26591 2.37709C2.7415 2.79603 2.30937 3.27797 1.97392 3.8097C1.10966 5.16908 0.847453 6.85658 1.1331 8.62172C1.42167 10.4132 2.27275 12.2868 3.62919 13.9845C4.57255 15.1681 5.75908 16.2667 7.17118 17.194L7.16679 17.1969ZM6.96757 3.17982C8.00029 3.17982 8.93779 3.59877 9.61308 4.27699C10.2913 4.95521 10.7102 5.88832 10.7102 6.9225C10.7102 7.95521 10.2913 8.89271 9.61308 9.568C8.93486 10.2462 8.00175 10.6652 6.96757 10.6652C5.93486 10.6652 4.99736 10.2462 4.32206 9.568C3.64384 8.88978 3.2249 7.95668 3.2249 6.9225C3.2249 5.88978 3.64384 4.95228 4.32206 4.27699C5.00029 3.59877 5.93339 3.17982 6.96757 3.17982ZM9.07402 4.81605C8.53642 4.27845 7.78788 3.94154 6.96757 3.94154C6.14286 3.94154 5.39872 4.27406 4.86113 4.81605C4.32353 5.35365 3.98661 6.10218 3.98661 6.9225C3.98661 7.7472 4.31913 8.49135 4.86113 9.02894C5.39872 9.56654 6.14726 9.90345 6.96757 9.90345C7.79228 9.90345 8.53642 9.57094 9.07402 9.02894C9.61161 8.49135 9.94853 7.74281 9.94853 6.9225C9.94706 6.09779 9.61601 5.35365 9.07402 4.81605ZM10.2474 15.6471C9.42704 16.5436 8.47636 17.3478 7.40263 17.9996C7.27372 18.0963 7.09062 18.1095 6.94413 18.0158C5.3621 17.0094 4.03642 15.7994 2.99052 14.4869C1.55058 12.6808 0.64091 10.6769 0.331828 8.74623C0.0168867 6.7892 0.31132 4.90834 1.28544 3.37318C1.6707 2.7682 2.15995 2.21742 2.76054 1.74134C4.1331 0.648571 5.70488 0.0699582 7.2664 0.0802121C8.77226 0.0933957 10.2576 0.651501 11.5467 1.82777C11.9993 2.23939 12.3772 2.70521 12.6863 3.21644C13.7337 4.94056 13.9593 7.14369 13.5008 9.37025C13.0452 11.5734 11.9187 13.8131 10.2518 15.6398L10.2474 15.6471Z" fill="#332C5C"/>
</g>
<defs>
<clipPath id="clip0_54729_1422">
<rect width="13.5146" height="18" fill="white" transform="translate(0.210938 0.0800781)"/>
</clipPath>
</defs>
</svg>
