<svg width="16" height="16" viewBox="0 0 16 16" fill="none" xmlns="http://www.w3.org/2000/svg">
<g clip-path="url(#clip0_54643_1248)">
<path d="M11.8383 9.19298C11.8071 9.17802 10.6407 8.60363 10.4334 8.52903C10.3488 8.49864 10.2581 8.46898 10.1617 8.46898C10.0042 8.46898 9.87187 8.54747 9.76881 8.70165C9.65229 8.87485 9.29956 9.28716 9.19057 9.41033C9.17634 9.42659 9.15691 9.44602 9.14528 9.44602C9.13483 9.44602 8.95431 9.37168 8.89966 9.34794C7.64839 8.80441 6.69863 7.49734 6.56839 7.27693C6.5498 7.24524 6.54902 7.23085 6.54886 7.23085C6.55343 7.21407 6.59551 7.17189 6.61722 7.15012C6.68076 7.08726 6.74959 7.00441 6.81618 6.92425C6.84772 6.88628 6.8793 6.84825 6.91031 6.81241C7.00694 6.69999 7.04995 6.61272 7.09982 6.51163L7.12595 6.45911C7.24772 6.21719 7.14372 6.01303 7.11011 5.94711C7.08252 5.89194 6.59 4.70326 6.53764 4.57838C6.41172 4.27703 6.24533 4.13672 6.01411 4.13672C5.99265 4.13672 6.01411 4.13672 5.92413 4.14051C5.81457 4.14513 5.21795 4.22368 4.95416 4.38997C4.67442 4.56633 4.20117 5.12851 4.20117 6.11719C4.20117 7.007 4.76585 7.84716 5.00829 8.16669C5.01431 8.17474 5.02538 8.19111 5.04143 8.21459C5.9699 9.57054 7.12735 10.5754 8.3007 11.0441C9.43031 11.4954 9.96522 11.5475 10.2693 11.5475H10.2694C10.3972 11.5475 10.4995 11.5375 10.5897 11.5286L10.6469 11.5232C11.0372 11.4886 11.8947 11.0442 12.0898 10.5021C12.2435 10.0752 12.284 9.60867 12.1817 9.43937C12.1117 9.32425 11.991 9.26633 11.8383 9.19298Z" fill="#24223E"/>
<path d="M8.14201 0C3.80871 0 0.283313 3.49891 0.283313 7.79964C0.283313 9.19065 0.655572 10.5523 1.36077 11.7439L0.0110009 15.7255C-0.0141419 15.7997 0.00455936 15.8818 0.0594685 15.9377C0.0991048 15.9782 0.152871 16 0.20778 16C0.228819 16 0.250014 15.9968 0.270689 15.9902L4.42238 14.671C5.55848 15.278 6.84253 15.5984 8.14207 15.5984C12.4749 15.5984 16 12.0999 16 7.79964C16 3.49891 12.4749 0 8.14201 0ZM8.14201 13.9737C6.91921 13.9737 5.73484 13.6206 4.71677 12.9526C4.68253 12.9301 4.64279 12.9185 4.60279 12.9185C4.58165 12.9185 4.56046 12.9218 4.53983 12.9283L2.46009 13.5894L3.13147 11.6087C3.15318 11.5446 3.14233 11.4739 3.10233 11.4192C2.32705 10.3599 1.91723 9.10831 1.91723 7.79964C1.91723 4.39481 4.70965 1.62473 8.14196 1.62473C11.5739 1.62473 14.366 4.39481 14.366 7.79964C14.366 11.2041 11.574 13.9737 8.14201 13.9737Z" fill="#24223E"/>
</g>
<defs>
<clipPath id="clip0_54643_1248">
<rect width="16" height="16" fill="white"/>
</clipPath>
</defs>
</svg>
